<svg width="22" height="18" viewBox="0 0 22 18" fill="none" xmlns="http://www.w3.org/2000/svg">
  <path fill-rule="evenodd" clip-rule="evenodd" d="M16.9405 3.60762H19.7303C20.3321 3.60825 20.909 3.85193 21.3345 4.28518C21.76 4.71843 21.9994 5.30585 22 5.91855V15.1623C21.9994 15.775 21.76 16.3624 21.3345 16.7957C20.909 17.2289 20.3321 17.4726 19.7303 17.4732H3.08608C2.48432 17.4726 1.90738 17.2289 1.48187 16.7957C1.05636 16.3624 0.817032 15.775 0.816406 15.1623V5.92144C0.817032 5.30874 1.05636 4.72131 1.48187 4.28807C1.90738 3.85482 2.48432 3.61114 3.08608 3.61051H3.27522V3.22535C3.27522 3.02105 3.35492 2.82512 3.49681 2.68066C3.63869 2.5362 3.83112 2.45504 4.03177 2.45504H5.16661C5.36726 2.45504 5.55969 2.5362 5.70157 2.68066C5.84346 2.82512 5.92317 3.02105 5.92317 3.22535V3.61051C6.07826 3.61051 6.22579 3.48629 6.33076 3.36978L7.55733 1.39586C7.57673 1.36458 7.59838 1.33481 7.62211 1.30679C8.04578 0.80368 8.6184 0.526367 9.2331 0.526367H13.5833C14.198 0.526367 14.7706 0.80368 15.1943 1.30679C15.218 1.33481 15.2397 1.36458 15.2591 1.39586L16.4856 3.36689C16.6228 3.51422 16.7987 3.60762 16.9405 3.60762ZM8.88628 13.6131C9.63277 14.1209 10.5104 14.392 11.4082 14.392C12.6117 14.3906 13.7655 13.9032 14.6165 13.0367C15.4675 12.1703 15.9462 10.9955 15.9475 9.77012C15.9475 8.856 15.6813 7.9624 15.1825 7.20234C14.6837 6.44228 13.9748 5.84988 13.1453 5.50006C12.3159 5.15024 11.4032 5.05871 10.5226 5.23705C9.64208 5.41539 8.83324 5.85558 8.1984 6.50196C7.56357 7.14834 7.13124 7.97188 6.95608 8.86843C6.78093 9.76499 6.87083 10.6943 7.2144 11.5388C7.55797 12.3834 8.13979 13.1052 8.88628 13.6131ZM14.4348 9.76824C14.4348 11.47 13.0799 12.8495 11.4086 12.8495C9.73726 12.8495 8.38237 11.47 8.38237 9.76824C8.38237 8.06651 9.73726 6.68699 11.4086 6.68699C13.0799 6.68699 14.4348 8.06651 14.4348 9.76824Z" fill="white"/>
</svg>
