<svg width="30" height="30" viewBox="0 0 30 30" fill="none" xmlns="http://www.w3.org/2000/svg">
<path fill-rule="evenodd" clip-rule="evenodd" d="M13.4399 21.8937C14.0257 22.4795 14.9755 22.4795 15.5613 21.8937L21.7835 15.6714C22.3693 15.0857 22.3693 14.1359 21.7835 13.5501C21.1978 12.9643 20.248 12.9643 19.6622 13.5501L16.0006 17.2117L16.0006 4.83301C16.0006 4.00458 15.329 3.33301 14.5006 3.33301C13.6722 3.33301 13.0006 4.00458 13.0006 4.83301L13.0006 17.2117L9.33909 13.5501C8.75331 12.9643 7.80356 12.9643 7.21777 13.5501C6.63198 14.1359 6.63198 15.0857 7.21776 15.6714L13.4399 21.8937ZM3.83398 24.6663C3.00556 24.6663 2.33398 25.3379 2.33398 26.1663C2.33398 26.9948 3.00556 27.6663 3.83398 27.6663H25.1673C25.9957 27.6663 26.6673 26.9948 26.6673 26.1663C26.6673 25.3379 25.9957 24.6663 25.1673 24.6663H3.83398Z" fill="#557EBE"/>
</svg>
