<svg width="24" height="19" viewBox="0 0 24 19" fill="none" xmlns="http://www.w3.org/2000/svg">
<path d="M12.0005 6.324C13.7676 6.324 15.2002 7.74283 15.2002 9.49305C15.2002 11.2433 13.7676 12.6621 12.0005 12.6621C10.2333 12.6621 8.80078 11.2433 8.80078 9.49305C8.80078 7.74283 10.2333 6.324 12.0005 6.324Z" fill="#667389"/>
<path d="M23.7409 10.355C22.418 12.3812 20.7016 14.1024 18.7778 15.3329C16.6495 16.6955 14.2997 17.416 11.9829 17.416C9.85711 17.416 7.7668 16.8144 5.76998 15.628C3.73366 14.4183 1.88883 12.651 0.286471 10.3758C0.10558 10.1186 0.00595613 9.81402 0.000258793 9.50067C-0.00543854 9.18732 0.083048 8.87936 0.254474 8.61594C1.57485 6.56942 3.2742 4.84575 5.16803 3.6321C7.30034 2.26396 9.59513 1.57073 11.9829 1.57073C14.3182 1.57073 16.673 2.28525 18.7923 3.63656C20.7151 4.86308 22.428 6.59071 23.7459 8.63377C23.9114 8.89107 23.9989 9.19 23.998 9.49509C23.9971 9.80017 23.9079 10.0986 23.7409 10.355ZM11.9999 4.73979C11.0506 4.73979 10.1227 5.01858 9.33342 5.54091C8.54413 6.06324 7.92896 6.80565 7.56569 7.67425C7.20242 8.54286 7.10738 9.49865 7.29257 10.4208C7.47776 11.3429 7.93488 12.1899 8.60611 12.8547C9.27734 13.5195 10.1325 13.9722 11.0636 14.1556C11.9946 14.339 12.9596 14.2449 13.8366 13.8851C14.7136 13.5253 15.4632 12.916 15.9906 12.1343C16.518 11.3526 16.7995 10.4335 16.7995 9.49337C16.798 8.23309 16.2919 7.02483 15.3921 6.13367C14.4923 5.24251 13.2724 4.74123 11.9999 4.73979Z" fill="#667389"/>
</svg>
