<svg width="18" height="14" viewBox="0 0 18 14" fill="none" xmlns="http://www.w3.org/2000/svg">
<path d="M11.4615 4V2.5C11.4615 2.10218 11.2995 1.72064 11.0109 1.43934C10.7224 1.15804 10.3311 1 9.92308 1H2.53846C2.13044 1 1.73912 1.15804 1.4506 1.43934C1.16209 1.72064 1 2.10218 1 2.5V11.5C1 11.8978 1.16209 12.2794 1.4506 12.5607C1.73912 12.842 2.13044 13 2.53846 13H9.92308C10.3311 13 10.7224 12.842 11.0109 12.5607C11.2995 12.2794 11.4615 11.8978 11.4615 11.5V10M13.9231 4L17 7L13.9231 10M6.5 7H17" stroke="#557EBE" stroke-width="1.5" stroke-linecap="round" stroke-linejoin="round"/>
</svg>
