<svg width="163" height="38" viewBox="0 0 163 38" fill="none" xmlns="http://www.w3.org/2000/svg">
<path d="M60.3164 30.7788V6.4541H57.9969V30.7788H60.3164Z" fill="#EBEAE7"/>
<path d="M76.097 14.1201V23.6284H74.77V15.3045H69.2536V23.6284H67.9102V14.1201H76.097Z" fill="#EBEAE7"/>
<path d="M86.7025 14.1201V23.6284H85.3755V15.3045H81.1642L81.0709 18.0901C81.0475 19.1606 80.9412 20.2275 80.7529 21.2815C80.6477 21.9513 80.3741 22.5834 79.9578 23.1185C79.7739 23.324 79.5467 23.4862 79.2926 23.5934C79.0385 23.7005 78.7638 23.75 78.4882 23.7381C78.1997 23.7361 77.9125 23.6993 77.6328 23.6284L77.726 22.4221C77.8698 22.4565 78.0169 22.4749 78.1647 22.4769C78.348 22.483 78.5298 22.443 78.6936 22.3606C78.8574 22.2782 78.998 22.1561 79.1024 22.0053C79.3892 21.585 79.5767 21.105 79.6507 20.6016C79.7902 19.7843 79.8672 18.9575 79.881 18.1285L80.0346 14.1201H86.7025Z" fill="#EBEAE7"/>
<path d="M95.8436 21.2541H90.7933L89.7459 23.6284H88.3477L92.6522 14.1201H93.9956L98.3166 23.6284H96.8909L95.8436 21.2541ZM95.372 20.1574L93.3212 15.4965L91.2703 20.1574H95.372Z" fill="#EBEAE7"/>
<path d="M106.016 15.3045H102.758V23.6284H101.426V15.3045H98.1797V14.1201H106.016V15.3045Z" fill="#EBEAE7"/>
<path d="M116.701 21.8238C115.621 22.6034 114.315 23.0079 112.983 22.9753V23.9788H111.717V22.9753C110.38 23.0019 109.071 22.5918 107.988 21.8073C107.552 21.4545 107.205 21.0041 106.976 20.4926C106.746 19.9811 106.64 19.4228 106.666 18.8627C106.639 18.3001 106.744 17.7389 106.974 17.2245C107.203 16.7102 107.551 16.257 107.988 15.9016C109.071 15.1171 110.38 14.7071 111.717 14.7336V13.7686H112.983V14.7336C114.315 14.7102 115.619 15.1222 116.696 15.9071C117.131 16.2625 117.478 16.7149 117.707 17.2281C117.937 17.7413 118.043 18.3011 118.017 18.8627C118.043 19.4246 117.937 19.9847 117.709 20.4987C117.481 21.0127 117.135 21.4664 116.701 21.8238ZM108.953 21.0287C109.754 21.5997 110.711 21.9099 111.695 21.917V15.8084C110.7 15.8049 109.73 16.1137 108.92 16.6912C108.616 16.9648 108.373 17.2992 108.206 17.6729C108.04 18.0465 107.954 18.4509 107.954 18.86C107.954 19.269 108.04 19.6734 108.206 20.047C108.373 20.4207 108.616 20.7551 108.92 21.0287H108.953ZM115.758 21.0287C116.079 20.7638 116.332 20.4273 116.499 20.0463C116.666 19.6653 116.741 19.2505 116.718 18.8353C116.736 18.426 116.658 18.0181 116.489 17.6446C116.32 17.2712 116.066 16.9427 115.747 16.6858C114.946 16.1157 113.989 15.8056 113.005 15.7974V21.917C113.993 21.9143 114.955 21.6038 115.758 21.0287Z" fill="#EBEAE7"/>
<path d="M121.795 23.1073C121.043 22.7017 120.416 22.0989 119.98 21.3636C119.549 20.6057 119.322 19.7487 119.322 18.8768C119.322 18.0049 119.549 17.1479 119.98 16.3901C120.416 15.6548 121.043 15.0519 121.795 14.6463C122.595 14.2319 123.483 14.0156 124.383 14.0156C125.284 14.0156 126.172 14.2319 126.972 14.6463C127.722 15.0486 128.346 15.6501 128.776 16.3846C129.204 17.1455 129.429 18.0038 129.429 18.8768C129.429 19.7498 129.204 20.6081 128.776 21.369C128.344 22.1022 127.72 22.7034 126.972 23.1073C126.172 23.5217 125.284 23.738 124.383 23.738C123.483 23.738 122.595 23.5217 121.795 23.1073ZM126.27 22.0545C126.819 21.7453 127.274 21.2922 127.586 20.7439C127.904 20.173 128.071 19.5303 128.071 18.8768C128.071 18.2233 127.904 17.5807 127.586 17.0097C127.276 16.4602 126.821 16.0068 126.27 15.6991C125.696 15.3772 125.047 15.2126 124.389 15.2221C123.728 15.2132 123.075 15.3777 122.497 15.6991C121.939 16.0032 121.478 16.4571 121.165 17.0097C120.847 17.5807 120.68 18.2233 120.68 18.8768C120.68 19.5303 120.847 20.173 121.165 20.7439C121.479 21.2954 121.94 21.749 122.497 22.0545C123.075 22.3759 123.728 22.5404 124.389 22.5315C125.047 22.541 125.696 22.3764 126.27 22.0545Z" fill="#EBEAE7"/>
<path d="M138.242 15.0027C138.593 15.3003 138.871 15.6747 139.055 16.0968C139.238 16.5189 139.322 16.9776 139.3 17.4373C139.323 17.8964 139.239 18.3545 139.056 18.7759C138.872 19.1973 138.594 19.5705 138.242 19.8665C137.409 20.4975 136.379 20.8105 135.336 20.7493H132.989V23.6282H131.629V14.1198H135.336C136.379 14.0587 137.409 14.3717 138.242 15.0027ZM137.266 19.0056C137.479 18.8009 137.649 18.5553 137.764 18.2834C137.88 18.0116 137.94 17.7191 137.94 17.4236C137.94 17.1281 137.88 16.8357 137.764 16.5638C137.649 16.292 137.479 16.0463 137.266 15.8416C136.692 15.4395 135.997 15.246 135.297 15.2933H132.989V19.554H135.297C135.997 19.6013 136.692 19.4078 137.266 19.0056Z" fill="#EBEAE7"/>
<path d="M150.003 23.6284V16.7028L146.57 22.4769H145.945L142.518 16.7412V23.6284H141.213V14.1201H142.31L146.274 20.8045L150.195 14.1201H151.292V23.6284H150.003Z" fill="#EBEAE7"/>
<path d="M160.444 21.2541H155.394L154.347 23.6284H152.938L157.242 14.1201H158.585L162.906 23.6284H161.481L160.444 21.2541ZM159.973 20.1574L157.922 15.4965L155.871 20.1574H159.973Z" fill="#EBEAE7"/>
<path d="M12.16 4.56738V32.6098C11.162 32.2424 10.1914 31.8696 9.19341 31.5131C8.99052 31.4309 8.9631 31.3431 8.9631 31.1457C8.99052 28.0037 9.10567 17.3384 9.13309 15.1121C9.13309 15.0244 9.16599 14.9366 9.07826 14.8544C8.99052 15.8249 6.91229 29.4897 6.7094 30.2574C6.65456 30.4329 6.59424 30.5151 6.36942 30.4329L4.57085 29.7475C4.42828 29.6871 4.40086 29.6049 4.36796 29.4623C4.08282 27.9215 2.6297 17.0478 2.48713 15.8798H2.45971V16.2636C2.45971 20.3159 2.45971 24.3956 2.45971 28.4753V28.733C2.45971 28.8427 2.39939 28.9304 2.28424 28.8756C1.54397 28.5905 0.831121 28.3272 0.11827 28.0476C0.0810411 28.0373 0.0488245 28.0138 0.0276346 27.9815C0.00644466 27.9493 -0.00226972 27.9104 0.00311792 27.8721V9.64507C-0.0103045 9.52423 0.0198915 9.40256 0.0882616 9.30202C0.156632 9.20148 0.258677 9.12867 0.375994 9.09673C1.31915 8.75127 2.25682 8.41129 3.19998 8.03842C3.43028 7.95617 3.57285 8.21389 3.57285 8.21389C3.57285 8.21389 5.43175 21.2591 5.56884 22.1145C5.65657 21.3413 7.67997 7.49007 7.96511 6.39338C7.98449 6.32038 8.02412 6.25436 8.07943 6.20293C8.13473 6.15151 8.20346 6.11678 8.27767 6.10275C9.5608 5.59279 10.8768 5.07735 12.16 4.56738Z" fill="white"/>
<path d="M49.1629 27.5925C49.1698 27.6925 49.1427 27.7919 49.0859 27.8745C49.0292 27.9571 48.9462 28.0182 48.8504 28.0476C48.1923 28.2724 47.5672 28.5302 46.9092 28.7879C46.5692 28.9305 46.5418 28.903 46.5418 28.5302C46.5418 25.7062 46.5967 16.0059 46.5967 16.0059C46.6099 15.9113 46.6099 15.8154 46.5967 15.7208C46.4267 17.0313 45.2806 26.1394 44.6007 29.3033C44.5841 29.4461 44.5267 29.5811 44.4352 29.692C44.3438 29.8029 44.2222 29.885 44.0852 29.9284C43.5417 30.0929 43.0088 30.2907 42.4895 30.5207C42.1441 30.6303 42.1167 30.6303 42.0344 30.2629C41.689 28.9908 40.0329 15.9237 39.9781 14.6186H39.8904V16.5872L39.8081 24.2092L39.7204 31.228C39.7328 31.3323 39.7084 31.4376 39.6513 31.5258C39.5942 31.6139 39.5081 31.6793 39.4078 31.7106C38.5524 32.0505 37.6367 32.3686 36.7812 32.7086V4.50709C36.8309 4.50494 36.8802 4.51632 36.9238 4.53999C38.2947 5.04996 39.6327 5.5654 40.9761 6.07536C41.0672 6.10542 41.1465 6.16349 41.2026 6.24128C41.2588 6.31908 41.2889 6.41263 41.2887 6.50856C41.6341 8.1536 43.3175 21.6539 43.3998 22.1693C43.4601 21.6868 45.4287 8.78968 45.5932 8.13166C45.5932 7.96168 45.7083 7.90136 45.9057 7.96168C46.9037 8.36197 47.9291 8.76226 48.9271 9.12966C49.004 9.15369 49.0696 9.20463 49.1119 9.27312C49.1542 9.34162 49.1703 9.42307 49.1574 9.50253V9.55737C49.1428 15.5782 49.1446 21.5899 49.1629 27.5925Z" fill="#FCE49C"/>
<path d="M24.5703 30.444V37.1777C24.434 37.1873 24.2973 37.1667 24.17 37.1173C21.5763 36.2619 19.0375 35.2091 16.4383 34.2385C16.2375 34.1757 16.0415 34.0987 15.8516 34.0082V12.5569L21.0609 11.877V13.0175C21.0609 17.2124 21.006 21.3798 20.9786 25.5692C20.9457 26.94 20.9457 28.3109 20.9457 29.6818C20.9457 29.8243 20.9457 29.9669 21.1212 29.9943C22.2161 30.4267 23.4011 30.5812 24.5703 30.444Z" fill="white"/>
<path d="M24.6242 0.0274169C24.6242 0.202888 24.6242 0.372876 24.6242 0.542863V6.7337C24.3437 6.66668 24.0571 6.6281 23.7688 6.61854H23.4836C22.8585 6.61854 17.2051 8.1923 15.8945 8.53228V3.19686L15.9219 3.16944C17.2654 2.68142 18.5759 2.17145 19.9194 1.68342L20.7858 1.31603C21.9318 0.888321 23.0998 0.455128 24.2678 0.0877354C24.3491 0.0463212 24.4358 0.0167754 24.5255 0C24.5694 0.0274173 24.5694 0.0274169 24.6242 0.0274169Z" fill="white"/>
<path d="M24.5856 6.7331V0.55323C24.5856 0.383242 24.5856 0.207771 24.5856 0.00488281C27.9257 1.28249 30.652 3.78717 32.2076 7.00727C33.144 9.00055 33.7532 11.1317 34.0116 13.3187C34.4973 17.019 34.4252 20.7713 33.7978 24.4502C33.3635 27.3749 32.2519 30.1577 30.5516 32.5767C29.0582 34.5911 27.0506 36.1669 24.7391 37.1389C24.6897 37.1389 24.6294 37.1718 24.5801 37.1883C24.5801 34.9401 24.5801 32.6955 24.5801 30.4546C24.6123 30.4106 24.6491 30.3702 24.6897 30.3339C25.6402 29.4873 26.3704 28.4221 26.8173 27.2303C27.4463 25.5011 27.8159 23.6884 27.914 21.851C28.1005 19.5957 28.1005 17.3288 27.914 15.0735C27.8218 13.7766 27.607 12.4914 27.2725 11.235C26.853 9.49706 25.9161 7.92727 24.5856 6.7331Z" fill="#FCE49C"/>
</svg>
