<svg width="24" height="24" viewBox="0 0 24 24" fill="none" xmlns="http://www.w3.org/2000/svg">
<path d="M16.3822 4.94864C16.053 5.16247 15.6292 5.16396 15.2986 4.95244L8.70299 0.733315C8.36366 0.516242 7.9272 0.523974 7.59576 0.752928L0.431634 5.70183C0.161346 5.88854 0 6.1961 0 6.52461V22.1579C0 22.9512 0.879494 23.4287 1.54476 22.9965L7.6178 19.0514C7.94696 18.8375 8.37078 18.836 8.70143 19.0476L15.297 23.2667C15.6363 23.4838 16.0728 23.476 16.4042 23.2471L23.5684 18.2982C23.8387 18.1115 24 17.8039 24 17.4754V1.84209C24 1.04878 23.1205 0.571333 22.4552 1.0035L16.3822 4.94864ZM15 20.8393L9.45924 17.2774C9.17302 17.0934 9 16.7765 9 16.4362V3.16071L14.5408 6.72263C14.827 6.90663 15 7.22354 15 7.56381V20.8393Z" fill="#436BB2"/>
</svg>
