<svg width="16" height="24" viewBox="0 0 16 24" fill="none" xmlns="http://www.w3.org/2000/svg">
<path d="M13.0909 0H2.18182C0.981818 0 0 0.981818 0 2.18182V21.8182C0 23.0182 0.981818 24 2.18182 24H13.0909C14.2909 24 15.2727 23.0182 15.2727 21.8182V2.18182C15.2727 0.981818 14.2909 0 13.0909 0ZM13.0909 19.7273C13.0909 20.2796 12.6432 20.7273 12.0909 20.7273H3.18182C2.62953 20.7273 2.18182 20.2796 2.18182 19.7273V4.27273C2.18182 3.72044 2.62953 3.27273 3.18182 3.27273H12.0909C12.6432 3.27273 13.0909 3.72044 13.0909 4.27273V19.7273Z" fill="#000"/>
</svg>
