<svg width="17" height="18" viewBox="0 0 17 18" fill="none" xmlns="http://www.w3.org/2000/svg">
<mask id="path-1-outside-1_2492_11622" maskUnits="userSpaceOnUse" x="0" y="0" width="17" height="18" fill="black">
<rect fill="white" width="17" height="18"/>
<path d="M15.6782 10.5304L15.6625 10.5172L14.6058 9.65635C14.5389 9.60135 14.4855 9.53065 14.45 9.45005C14.4145 9.36945 14.3979 9.28125 14.4015 9.1927V8.79061C14.3982 8.70261 14.415 8.61505 14.4505 8.53511C14.4861 8.45518 14.5394 8.38515 14.6061 8.33078L15.6625 7.46956L15.6782 7.45635C15.8411 7.31536 15.9505 7.11877 15.9866 6.90173C16.0228 6.68469 15.9835 6.46135 15.8758 6.27165L14.4457 3.70122C14.4441 3.69879 14.4426 3.69623 14.4414 3.69357C14.333 3.50649 14.165 3.36475 13.9666 3.29295C13.7681 3.22115 13.5517 3.22383 13.3549 3.30052L13.3432 3.30504L12.101 3.82435C12.0226 3.85728 11.9378 3.87038 11.8535 3.86258C11.7693 3.85478 11.6881 3.8263 11.6165 3.77948C11.5067 3.70759 11.3951 3.63965 11.2817 3.57565C11.2082 3.53424 11.145 3.47545 11.0974 3.40404C11.0498 3.33262 11.019 3.25058 11.0075 3.16452L10.8203 1.78748L10.8163 1.76243C10.7755 1.54915 10.6654 1.35693 10.5043 1.21808C10.3432 1.07924 10.141 1.00223 9.93169 1H7.0683C6.85605 1.00071 6.65084 1.07921 6.48884 1.22167C6.32683 1.36414 6.21842 1.56143 6.1827 1.77878L6.17969 1.79826L5.9932 3.17809C5.98175 3.2639 5.95119 3.34575 5.90393 3.41712C5.85667 3.4885 5.79403 3.54743 5.72099 3.58922C5.60726 3.65285 5.4956 3.72036 5.38617 3.79165C5.31473 3.83819 5.2337 3.86645 5.14971 3.87413C5.06572 3.88181 4.98118 3.86868 4.90302 3.83583L3.65983 3.31409L3.64811 3.30922C3.45106 3.23244 3.23433 3.22986 3.03563 3.30193C2.83694 3.374 2.66885 3.51615 2.56061 3.70365L2.55626 3.7113L1.12423 6.28348C1.0163 6.47337 0.976904 6.69695 1.01309 6.91425C1.04929 7.13155 1.1587 7.32839 1.32178 7.46956L1.33752 7.48278L2.39421 8.34365C2.46113 8.39865 2.51453 8.46935 2.55004 8.54995C2.58554 8.63055 2.60213 8.71875 2.59845 8.8073V9.20939C2.6018 9.29738 2.58501 9.38495 2.54944 9.46489C2.51388 9.54482 2.46056 9.61485 2.39387 9.66922L1.33752 10.5304L1.32178 10.5437C1.15886 10.6846 1.04954 10.8812 1.01335 11.0983C0.977154 11.3153 1.01646 11.5386 1.12423 11.7283L2.55425 14.2988C2.5559 14.3012 2.55736 14.3038 2.55861 14.3064C2.66696 14.4935 2.83496 14.6353 3.03344 14.707C3.23191 14.7788 3.44833 14.7762 3.6451 14.6995L3.65682 14.695L4.898 14.1757C4.9764 14.1427 5.06121 14.1296 5.14545 14.1374C5.22968 14.1452 5.31092 14.1737 5.38248 14.2205C5.4923 14.2926 5.60391 14.3606 5.7173 14.4243C5.79082 14.4658 5.85394 14.5245 5.90158 14.596C5.94921 14.6674 5.98002 14.7494 5.99152 14.8355L6.17768 16.2125L6.1817 16.2376C6.22251 16.4512 6.33299 16.6437 6.49449 16.7826C6.65599 16.9215 6.85865 16.9982 7.0683 17H9.93169C10.1439 16.9993 10.3492 16.9208 10.5112 16.7783C10.6732 16.6359 10.7816 16.4386 10.8173 16.2212L10.8203 16.2017L11.0068 14.8219C11.0184 14.7359 11.0492 14.654 11.0968 14.5826C11.1444 14.5112 11.2073 14.4524 11.2807 14.4108C11.3952 14.3468 11.507 14.279 11.6155 14.2083C11.6869 14.1618 11.768 14.1335 11.852 14.1259C11.9359 14.1182 12.0205 14.1313 12.0986 14.1642L13.3418 14.6842L13.3536 14.689C13.5506 14.766 13.7674 14.7686 13.9661 14.6965C14.1648 14.6244 14.3329 14.4822 14.4411 14.2946C14.4424 14.292 14.4438 14.2894 14.4454 14.287L15.8754 11.7169C15.9836 11.527 16.0231 11.3033 15.987 11.086C15.9508 10.8686 15.8414 10.6716 15.6782 10.5304ZM11.1755 9.13078C11.1512 9.66942 10.9767 10.1891 10.6732 10.6266C10.3698 11.0641 9.95058 11.4006 9.46649 11.5952C8.98239 11.7898 8.4543 11.8341 7.94643 11.7226C7.43857 11.6112 6.97281 11.3489 6.6058 10.9676C6.23878 10.5862 5.98632 10.1024 5.87912 9.57475C5.77192 9.04715 5.8146 8.49855 6.00196 7.99567C6.18932 7.4928 6.51329 7.0573 6.93449 6.74216C7.35568 6.42701 7.85594 6.24579 8.37444 6.22052C8.74668 6.2035 9.11826 6.26712 9.46554 6.40736C9.81283 6.54759 10.1282 6.76137 10.3917 7.03509C10.6551 7.3088 10.8609 7.63648 10.9958 7.99727C11.1308 8.35807 11.192 8.74409 11.1755 9.13078Z"/>
</mask>
<path d="M15.6782 10.5304L15.6625 10.5172L14.6058 9.65635C14.5389 9.60135 14.4855 9.53065 14.45 9.45005C14.4145 9.36945 14.3979 9.28125 14.4015 9.1927V8.79061C14.3982 8.70261 14.415 8.61505 14.4505 8.53511C14.4861 8.45518 14.5394 8.38515 14.6061 8.33078L15.6625 7.46956L15.6782 7.45635C15.8411 7.31536 15.9505 7.11877 15.9866 6.90173C16.0228 6.68469 15.9835 6.46135 15.8758 6.27165L14.4457 3.70122C14.4441 3.69879 14.4426 3.69623 14.4414 3.69357C14.333 3.50649 14.165 3.36475 13.9666 3.29295C13.7681 3.22115 13.5517 3.22383 13.3549 3.30052L13.3432 3.30504L12.101 3.82435C12.0226 3.85728 11.9378 3.87038 11.8535 3.86258C11.7693 3.85478 11.6881 3.8263 11.6165 3.77948C11.5067 3.70759 11.3951 3.63965 11.2817 3.57565C11.2082 3.53424 11.145 3.47545 11.0974 3.40404C11.0498 3.33262 11.019 3.25058 11.0075 3.16452L10.8203 1.78748L10.8163 1.76243C10.7755 1.54915 10.6654 1.35693 10.5043 1.21808C10.3432 1.07924 10.141 1.00223 9.93169 1H7.0683C6.85605 1.00071 6.65084 1.07921 6.48884 1.22167C6.32683 1.36414 6.21842 1.56143 6.1827 1.77878L6.17969 1.79826L5.9932 3.17809C5.98175 3.2639 5.95119 3.34575 5.90393 3.41712C5.85667 3.4885 5.79403 3.54743 5.72099 3.58922C5.60726 3.65285 5.4956 3.72036 5.38617 3.79165C5.31473 3.83819 5.2337 3.86645 5.14971 3.87413C5.06572 3.88181 4.98118 3.86868 4.90302 3.83583L3.65983 3.31409L3.64811 3.30922C3.45106 3.23244 3.23433 3.22986 3.03563 3.30193C2.83694 3.374 2.66885 3.51615 2.56061 3.70365L2.55626 3.7113L1.12423 6.28348C1.0163 6.47337 0.976904 6.69695 1.01309 6.91425C1.04929 7.13155 1.1587 7.32839 1.32178 7.46956L1.33752 7.48278L2.39421 8.34365C2.46113 8.39865 2.51453 8.46935 2.55004 8.54995C2.58554 8.63055 2.60213 8.71875 2.59845 8.8073V9.20939C2.6018 9.29738 2.58501 9.38495 2.54944 9.46489C2.51388 9.54482 2.46056 9.61485 2.39387 9.66922L1.33752 10.5304L1.32178 10.5437C1.15886 10.6846 1.04954 10.8812 1.01335 11.0983C0.977154 11.3153 1.01646 11.5386 1.12423 11.7283L2.55425 14.2988C2.5559 14.3012 2.55736 14.3038 2.55861 14.3064C2.66696 14.4935 2.83496 14.6353 3.03344 14.707C3.23191 14.7788 3.44833 14.7762 3.6451 14.6995L3.65682 14.695L4.898 14.1757C4.9764 14.1427 5.06121 14.1296 5.14545 14.1374C5.22968 14.1452 5.31092 14.1737 5.38248 14.2205C5.4923 14.2926 5.60391 14.3606 5.7173 14.4243C5.79082 14.4658 5.85394 14.5245 5.90158 14.596C5.94921 14.6674 5.98002 14.7494 5.99152 14.8355L6.17768 16.2125L6.1817 16.2376C6.22251 16.4512 6.33299 16.6437 6.49449 16.7826C6.65599 16.9215 6.85865 16.9982 7.0683 17H9.93169C10.1439 16.9993 10.3492 16.9208 10.5112 16.7783C10.6732 16.6359 10.7816 16.4386 10.8173 16.2212L10.8203 16.2017L11.0068 14.8219C11.0184 14.7359 11.0492 14.654 11.0968 14.5826C11.1444 14.5112 11.2073 14.4524 11.2807 14.4108C11.3952 14.3468 11.507 14.279 11.6155 14.2083C11.6869 14.1618 11.768 14.1335 11.852 14.1259C11.9359 14.1182 12.0205 14.1313 12.0986 14.1642L13.3418 14.6842L13.3536 14.689C13.5506 14.766 13.7674 14.7686 13.9661 14.6965C14.1648 14.6244 14.3329 14.4822 14.4411 14.2946C14.4424 14.292 14.4438 14.2894 14.4454 14.287L15.8754 11.7169C15.9836 11.527 16.0231 11.3033 15.987 11.086C15.9508 10.8686 15.8414 10.6716 15.6782 10.5304ZM11.1755 9.13078C11.1512 9.66942 10.9767 10.1891 10.6732 10.6266C10.3698 11.0641 9.95058 11.4006 9.46649 11.5952C8.98239 11.7898 8.4543 11.8341 7.94643 11.7226C7.43857 11.6112 6.97281 11.3489 6.6058 10.9676C6.23878 10.5862 5.98632 10.1024 5.87912 9.57475C5.77192 9.04715 5.8146 8.49855 6.00196 7.99567C6.18932 7.4928 6.51329 7.0573 6.93449 6.74216C7.35568 6.42701 7.85594 6.24579 8.37444 6.22052C8.74668 6.2035 9.11826 6.26712 9.46554 6.40736C9.81283 6.54759 10.1282 6.76137 10.3917 7.03509C10.6551 7.3088 10.8609 7.63648 10.9958 7.99727C11.1308 8.35807 11.192 8.74409 11.1755 9.13078Z" stroke="white" stroke-width="2" mask="url(#path-1-outside-1_2492_11622)"/>
</svg>
