<svg width="15" height="15" viewBox="0 0 15 15" fill="none" xmlns="http://www.w3.org/2000/svg">
<path d="M6.39363 6.39314L6.74719 6.7467L6.39363 6.39314C6.27039 6.51638 6.10325 6.58562 5.92896 6.58562H1.55753C1.38325 6.58562 1.2161 6.51638 1.09286 6.39314C0.969625 6.26991 0.900391 6.10276 0.900391 5.92847V1.55705C0.900391 1.38276 0.969625 1.21561 1.09286 1.09237C1.2161 0.969137 1.38325 0.899902 1.55753 0.899902H5.92896C6.10325 0.899902 6.27039 0.969137 6.39363 1.09237C6.51687 1.21561 6.58611 1.38276 6.58611 1.55705V5.92847C6.58611 6.10276 6.51687 6.26991 6.39363 6.39314ZM1.09286 14.1074L0.740827 14.4595L1.09286 14.1074C0.969625 13.9842 0.900391 13.817 0.900391 13.6428V9.27133C0.900391 9.09705 0.969625 8.9299 1.09286 8.80666C1.2161 8.68342 1.38325 8.61419 1.55753 8.61419H5.92896C6.10325 8.61419 6.27039 8.68342 6.39363 8.80666C6.51687 8.9299 6.58611 9.09705 6.58611 9.27133V13.6428C6.58611 13.817 6.51687 13.9842 6.39363 14.1074C6.27039 14.2307 6.10325 14.2999 5.92896 14.2999H1.55753C1.38325 14.2999 1.2161 14.2307 1.09286 14.1074ZM13.6432 6.58562H9.27182C9.09754 6.58562 8.93039 6.51638 8.80715 6.39314C8.68391 6.26991 8.61468 6.10276 8.61468 5.92847V1.55705C8.61468 1.38276 8.68391 1.21561 8.80715 1.09237C8.93039 0.969137 9.09754 0.899902 9.27182 0.899902H13.6432C13.8175 0.899902 13.9847 0.969137 14.1079 1.09237L14.4615 0.738822L14.1079 1.09238C14.2312 1.21561 14.3004 1.38276 14.3004 1.55705V5.92847C14.3004 6.10276 14.2312 6.26991 14.1079 6.39314C13.9847 6.51638 13.8175 6.58562 13.6432 6.58562ZM13.6432 14.2999H9.27182C9.09754 14.2999 8.93039 14.2307 8.80715 14.1074C8.68391 13.9842 8.61468 13.817 8.61468 13.6428V9.27133C8.61468 9.09705 8.68391 8.9299 8.80715 8.80666C8.93039 8.68342 9.09754 8.61419 9.27182 8.61419H13.6432C13.8175 8.61419 13.9847 8.68342 14.1079 8.80666C14.2312 8.9299 14.3004 9.09705 14.3004 9.27133V13.6428C14.3004 13.817 14.2312 13.9842 14.1079 14.1074C13.9847 14.2307 13.8175 14.2999 13.6432 14.2999Z" stroke="white"/>
</svg>
