<svg width="20" height="20" viewBox="0 0 20 20" fill="none" xmlns="http://www.w3.org/2000/svg">
<path d="M9.66658 13.7005C8.5858 13.7258 7.70078 14.6608 7.70078 15.7401V16.5249C7.70078 16.5713 7.68235 16.6158 7.64953 16.6486C7.61671 16.6815 7.5722 16.6999 7.52578 16.6999H4.88653C4.67829 16.6999 4.47208 16.6589 4.27969 16.5792C4.08729 16.4995 3.91248 16.3827 3.76523 16.2355C3.46785 15.9381 3.30078 15.5348 3.30078 15.1142V12.475C3.30078 12.4286 3.31922 12.3841 3.35203 12.3513C3.38485 12.3185 3.42936 12.3 3.47578 12.3H4.51491C5.00495 12.3 5.46341 12.09 5.81083 11.7396C6.00367 11.5452 6.15617 11.3146 6.25956 11.061C6.36297 10.8074 6.41521 10.5359 6.41328 10.262L6.41323 10.2585C6.39838 9.2093 5.53982 8.30009 4.48491 8.30009H3.47578C3.42936 8.30009 3.38485 8.28165 3.35203 8.24884C3.31922 8.21602 3.30078 8.17151 3.30078 8.12511V5.48592C3.30078 5.27768 3.3418 5.07148 3.42149 4.8791C3.50118 4.68671 3.61798 4.51191 3.76523 4.36466C4.06262 4.06728 4.46596 3.90021 4.88653 3.90021H6.95803C7.1702 3.90021 7.37368 3.81593 7.52371 3.6659C7.67374 3.51588 7.75803 3.31239 7.75803 3.10022V2.85723C7.75803 2.5973 7.8098 2.33997 7.91033 2.10027C8.01085 1.86056 8.15812 1.64328 8.34353 1.4611C8.52893 1.27892 8.74877 1.1355 8.99021 1.03919C9.23165 0.942891 9.48986 0.895642 9.74976 0.900204L9.7498 0.900205C10.8021 0.918587 11.672 1.80628 11.672 2.8876V3.10022C11.672 3.31239 11.7563 3.51588 11.9064 3.6659C12.0564 3.81593 12.2599 3.90021 12.472 3.90021H14.5435C14.748 3.90021 14.9505 3.94049 15.1395 4.01875C15.3284 4.09701 15.5001 4.21171 15.6447 4.35631C15.7893 4.50091 15.904 4.67258 15.9822 4.8615C16.0605 5.05043 16.1008 5.25292 16.1008 5.45742V7.52887C16.1008 7.74104 16.1851 7.94453 16.3351 8.09455C16.4851 8.24458 16.6886 8.32886 16.9008 8.32886H17.113C18.221 8.32886 19.1008 9.20464 19.1008 10.2528C19.1008 11.3558 18.2162 12.2428 17.1438 12.2428H16.9008C16.6886 12.2428 16.4851 12.327 16.3351 12.4771C16.1851 12.6271 16.1008 12.8306 16.1008 13.0427V15.1427C16.1008 15.3472 16.0605 15.5497 15.9822 15.7386C15.904 15.9275 15.7893 16.0992 15.6447 16.2438C15.5001 16.3884 15.3284 16.5031 15.1395 16.5814C14.9505 16.6596 14.748 16.6999 14.5435 16.6999H11.8758C11.8294 16.6999 11.7849 16.6815 11.752 16.6486C11.7192 16.6158 11.7008 16.5713 11.7008 16.5249V15.4864L9.66658 13.7005Z" stroke="white"/>
</svg>
