<svg width="24" height="24" viewBox="0 0 24 24" fill="none" xmlns="http://www.w3.org/2000/svg">
<path d="M3.17308 24H0V20.8269L17.8927 2.88981L21.1102 6.10789L3.17308 24ZM21.7915 5.42308L18.5769 2.20847L20.4035 0.43962C20.6856 0.155774 21.1183 5.10183e-06 21.5192 5.10183e-06C21.7166 -0.000510581 21.9121 0.0380718 22.0945 0.113525C22.2769 0.188979 22.4426 0.29981 22.5819 0.43962L23.5627 1.42039C23.7019 1.55957 23.8122 1.72491 23.8873 1.90689C23.9623 2.08888 24.0006 2.28392 24 2.48077C24 2.88462 23.8436 3.31443 23.5604 3.5977L21.7915 5.42308Z" fill="#000"/>
</svg>
