<svg width="24" height="24" viewBox="0 0 24 24" fill="none" xmlns="http://www.w3.org/2000/svg">
<path d="M16.7754 24H12.9643C12.7085 24 12.4633 23.8984 12.2824 23.7176C12.1016 23.5367 12 23.2915 12 23.0357V21.5513C12.0007 21.3233 11.955 21.0976 11.8655 20.8878C11.7761 20.6781 11.6449 20.4888 11.4798 20.3315C11.063 19.9249 10.4577 19.6994 9.825 19.7149C8.68071 19.7417 7.71429 20.7488 7.71429 21.9145V23.0357C7.71429 23.2915 7.61269 23.5367 7.43185 23.7176C7.25101 23.8984 7.00574 24 6.75 24H2.97964C2.58835 24 2.20089 23.9229 1.83938 23.7732C1.47788 23.6235 1.1494 23.404 0.872717 23.1273C0.313926 22.5685 0 21.8107 0 21.0204V17.2502C0 16.9944 0.101594 16.7491 0.282433 16.5683C0.463271 16.3875 0.708541 16.2859 0.964286 16.2859H2.44875C2.93946 16.2859 3.41679 16.0759 3.79286 15.6966C4.00208 15.4857 4.16754 15.2355 4.2797 14.9605C4.39187 14.6854 4.44853 14.3909 4.44643 14.0938C4.43036 12.9586 3.49607 12.0003 2.40589 12.0003H0.964286C0.708541 12.0003 0.463271 11.8987 0.282433 11.7178C0.101594 11.537 0 11.2917 0 11.036V7.26573C0 6.87445 0.0770708 6.487 0.226812 6.1255C0.376553 5.764 0.596032 5.43554 0.872717 5.15886C1.43151 4.60008 2.18939 4.28616 2.97964 4.28616H5.93893C6.05259 4.28616 6.1616 4.24101 6.24197 4.16064C6.32235 4.08026 6.3675 3.97126 6.3675 3.8576V3.51046C6.3675 3.04428 6.46035 2.58276 6.64065 2.15285C6.82094 1.72294 7.08506 1.33324 7.41759 1.0065C7.75012 0.679767 8.1444 0.422534 8.57742 0.249817C9.01044 0.0771001 9.47352 -0.00764053 9.93964 0.000540648C11.8409 0.0337542 13.3875 1.628 13.3875 3.55385V3.8576C13.3875 3.97126 13.4327 4.08026 13.513 4.16064C13.5934 4.24101 13.7024 4.28616 13.8161 4.28616H16.7754C17.1613 4.28616 17.5435 4.36217 17.9 4.50987C18.2566 4.65756 18.5806 4.87403 18.8535 5.14693C19.1264 5.41983 19.3429 5.74381 19.4906 6.10037C19.6383 6.45693 19.7143 6.83908 19.7143 7.22502V10.1842C19.7143 10.2979 19.7594 10.4069 19.8398 10.4873C19.9202 10.5676 20.0292 10.6128 20.1429 10.6128H20.4461C22.4057 10.6128 24 12.1663 24 14.0756C24 16.0368 22.4255 17.6326 20.49 17.6326H20.1429C20.0292 17.6326 19.9202 17.6778 19.8398 17.7582C19.7594 17.8385 19.7143 17.9475 19.7143 18.0612V21.0611C19.7143 21.4471 19.6383 21.8292 19.4906 22.1858C19.3429 22.5424 19.1264 22.8663 18.8535 23.1392C18.5806 23.4121 18.2566 23.6286 17.9 23.7763C17.5435 23.924 17.1613 24 16.7754 24Z" fill="#436BB2"/>
</svg>
