<svg width="24" height="24" viewBox="0 0 24 24" fill="none" xmlns="http://www.w3.org/2000/svg">
<path d="M20.1423 16.2861H16.7137C16.477 16.2861 16.2852 16.478 16.2852 16.7147V20.1433C16.2852 20.38 16.477 20.5718 16.7137 20.5718H20.1423C20.379 20.5718 20.5709 20.38 20.5709 20.1433V16.7147C20.5709 16.478 20.379 16.2861 20.1423 16.2861Z" fill="#000"/>
<path d="M15.8574 12.8574H13.286C13.0493 12.8574 12.8574 13.0493 12.8574 13.286V15.8574C12.8574 16.0941 13.0493 16.286 13.286 16.286H15.8574C16.0941 16.286 16.286 16.0941 16.286 15.8574V13.286C16.286 13.0493 16.0941 12.8574 15.8574 12.8574Z" fill="#000"/>
<path d="M23.5723 20.5713H21.0008C20.7641 20.5713 20.5723 20.7632 20.5723 20.9999V23.5713C20.5723 23.808 20.7641 23.9999 21.0008 23.9999H23.5723C23.809 23.9999 24.0008 23.808 24.0008 23.5713V20.9999C24.0008 20.7632 23.809 20.5713 23.5723 20.5713Z" fill="#000"/>
<path d="M23.5706 12.8574H21.8563C21.6196 12.8574 21.4277 13.0493 21.4277 13.286V15.0003C21.4277 15.237 21.6196 15.4289 21.8563 15.4289H23.5706C23.8073 15.4289 23.9992 15.237 23.9992 15.0003V13.286C23.9992 13.0493 23.8073 12.8574 23.5706 12.8574Z" fill="#000"/>
<path d="M15.0003 21.4287H13.286C13.0493 21.4287 12.8574 21.6206 12.8574 21.8573V23.5716C12.8574 23.8083 13.0493 24.0001 13.286 24.0001H15.0003C15.237 24.0001 15.4289 23.8083 15.4289 23.5716V21.8573C15.4289 21.6206 15.237 21.4287 15.0003 21.4287Z" fill="#000"/>
<path d="M22.2857 0H14.5714C14.1168 0 13.6807 0.180612 13.3592 0.502103C13.0378 0.823594 12.8571 1.25963 12.8571 1.71429V9.42857C12.8571 9.88323 13.0378 10.3193 13.3592 10.6408C13.6807 10.9622 14.1168 11.1429 14.5714 11.1429H22.2857C22.7404 11.1429 23.1764 10.9622 23.4979 10.6408C23.8194 10.3193 24 9.88323 24 9.42857V1.71429C24 1.25963 23.8194 0.823594 23.4979 0.502103C23.1764 0.180612 22.7404 0 22.2857 0ZM20.5714 7.28571C20.5714 7.39938 20.5263 7.50839 20.4459 7.58876C20.3655 7.66913 20.2565 7.71429 20.1429 7.71429H16.7143C16.6006 7.71429 16.4916 7.66913 16.4112 7.58876C16.3309 7.50839 16.2857 7.39938 16.2857 7.28571V3.85714C16.2857 3.74348 16.3309 3.63447 16.4112 3.5541C16.4916 3.47372 16.6006 3.42857 16.7143 3.42857H20.1429C20.2565 3.42857 20.3655 3.47372 20.4459 3.5541C20.5263 3.63447 20.5714 3.74348 20.5714 3.85714V7.28571ZM9.42857 0H1.71429C1.25963 0 0.823594 0.180612 0.502103 0.502103C0.180612 0.823594 0 1.25963 0 1.71429V9.42857C0 9.88323 0.180612 10.3193 0.502103 10.6408C0.823594 10.9622 1.25963 11.1429 1.71429 11.1429H9.42857C9.88323 11.1429 10.3193 10.9622 10.6408 10.6408C10.9622 10.3193 11.1429 9.88323 11.1429 9.42857V1.71429C11.1429 1.25963 10.9622 0.823594 10.6408 0.502103C10.3193 0.180612 9.88323 0 9.42857 0ZM7.71429 7.28571C7.71429 7.39938 7.66913 7.50839 7.58876 7.58876C7.50839 7.66913 7.39938 7.71429 7.28571 7.71429H3.85714C3.74348 7.71429 3.63447 7.66913 3.5541 7.58876C3.47372 7.50839 3.42857 7.39938 3.42857 7.28571V3.85714C3.42857 3.74348 3.47372 3.63447 3.5541 3.5541C3.63447 3.47372 3.74348 3.42857 3.85714 3.42857H7.28571C7.39938 3.42857 7.50839 3.47372 7.58876 3.5541C7.66913 3.63447 7.71429 3.74348 7.71429 3.85714V7.28571ZM9.42857 12.8571H1.71429C1.25963 12.8571 0.823594 13.0378 0.502103 13.3592C0.180612 13.6807 0 14.1168 0 14.5714V22.2857C0 22.7404 0.180612 23.1764 0.502103 23.4979C0.823594 23.8194 1.25963 24 1.71429 24H9.42857C9.88323 24 10.3193 23.8194 10.6408 23.4979C10.9622 23.1764 11.1429 22.7404 11.1429 22.2857V14.5714C11.1429 14.1168 10.9622 13.6807 10.6408 13.3592C10.3193 13.0378 9.88323 12.8571 9.42857 12.8571ZM7.71429 20.1429C7.71429 20.2565 7.66913 20.3655 7.58876 20.4459C7.50839 20.5263 7.39938 20.5714 7.28571 20.5714H3.85714C3.74348 20.5714 3.63447 20.5263 3.5541 20.4459C3.47372 20.3655 3.42857 20.2565 3.42857 20.1429V16.7143C3.42857 16.6006 3.47372 16.4916 3.5541 16.4112C3.63447 16.3309 3.74348 16.2857 3.85714 16.2857H7.28571C7.39938 16.2857 7.50839 16.3309 7.58876 16.4112C7.66913 16.4916 7.71429 16.6006 7.71429 16.7143V20.1429Z" fill="#000"/>
</svg>
