<svg width="24" height="26" viewBox="0 0 24 26" fill="none" xmlns="http://www.w3.org/2000/svg">
<path fill-rule="evenodd" clip-rule="evenodd" d="M12.9513 1.1729C12.4945 0.655284 11.7046 0.60599 11.1869 1.06279C10.6693 1.5196 10.62 2.30952 11.0768 2.82713L12.1844 4.08218C12.5174 4.45941 12.2381 5.0593 11.735 5.0593C9.74278 5.0593 7.79529 5.65007 6.13881 6.75689C4.48233 7.86372 3.19126 9.43689 2.42887 11.2775C1.66647 13.1181 1.467 15.1434 1.85566 17.0973C2.24433 19.0513 3.20368 20.8461 4.6124 22.2548C6.02112 23.6635 7.81594 24.6229 9.76989 25.0116C11.7238 25.4002 13.7492 25.2007 15.5897 24.4384C17.4303 23.676 19.0035 22.3849 20.1103 20.7284C21.2171 19.0719 21.8079 17.1244 21.8079 15.1322C21.8079 14.4418 21.2483 13.8822 20.5579 13.8822C19.8676 13.8822 19.3079 14.4418 19.3079 15.1322C19.3079 16.63 18.8638 18.0941 18.0317 19.3395C17.1995 20.5848 16.0168 21.5555 14.633 22.1287C13.2493 22.7018 11.7266 22.8518 10.2576 22.5596C8.78862 22.2674 7.43925 21.5461 6.38017 20.4871C5.32108 19.428 4.59983 18.0786 4.30763 16.6096C4.01542 15.1406 4.16539 13.6179 4.73857 12.2342C5.31174 10.8504 6.28238 9.66769 7.52774 8.83557C8.77309 8.00345 10.2372 7.5593 11.735 7.5593C12.2745 7.5593 12.5117 8.21448 12.1072 8.57142L10.6374 9.86856C10.1198 10.3254 10.0705 11.1153 10.5273 11.6329C10.9841 12.1505 11.774 12.1998 12.2916 11.743L16.9693 7.61488L17.1567 7.44946C17.5708 7.08401 17.6103 6.45208 17.2448 6.03799L17.0794 5.85054L12.9513 1.1729Z" fill="#557EBE"/>
</svg>
