<svg width="24" height="24" viewBox="0 0 24 24" fill="none" xmlns="http://www.w3.org/2000/svg">
<path d="M18.6782 13.5304L18.6625 13.5172L17.6058 12.6563C17.5389 12.6014 17.4855 12.5307 17.45 12.4501C17.4145 12.3695 17.3979 12.2813 17.4015 12.1927V11.7906C17.3982 11.7026 17.415 11.6151 17.4505 11.5351C17.4861 11.4552 17.5394 11.3851 17.6061 11.3308L18.6625 10.4696L18.6782 10.4563C18.8411 10.3154 18.9505 10.1188 18.9866 9.90173C19.0228 9.68469 18.9835 9.46135 18.8758 9.27165L17.4457 6.70122C17.4441 6.69879 17.4426 6.69623 17.4414 6.69357C17.333 6.50649 17.165 6.36475 16.9666 6.29295C16.7681 6.22115 16.5517 6.22383 16.3549 6.30052L16.3432 6.30504L15.101 6.82435C15.0226 6.85728 14.9378 6.87038 14.8535 6.86258C14.7693 6.85478 14.6881 6.8263 14.6165 6.77948C14.5067 6.70759 14.3951 6.63965 14.2817 6.57565C14.2082 6.53424 14.145 6.47545 14.0974 6.40404C14.0498 6.33262 14.019 6.25058 14.0075 6.16452L13.8203 4.78748L13.8163 4.76243C13.7755 4.54915 13.6654 4.35693 13.5043 4.21808C13.3432 4.07924 13.141 4.00223 12.9317 4H10.0683C9.85605 4.00071 9.65084 4.07921 9.48884 4.22167C9.32683 4.36414 9.21842 4.56143 9.1827 4.77878L9.17969 4.79826L8.9932 6.17809C8.98175 6.2639 8.95119 6.34575 8.90393 6.41712C8.85667 6.4885 8.79403 6.54743 8.72099 6.58922C8.60726 6.65285 8.4956 6.72036 8.38617 6.79165C8.31473 6.83819 8.2337 6.86645 8.14971 6.87413C8.06572 6.88181 7.98118 6.86868 7.90302 6.83583L6.65983 6.31409L6.64811 6.30922C6.45106 6.23244 6.23433 6.22986 6.03563 6.30193C5.83694 6.374 5.66885 6.51615 5.56061 6.70365L5.55626 6.7113L4.12423 9.28348C4.0163 9.47337 3.9769 9.69695 4.01309 9.91425C4.04929 10.1315 4.1587 10.3284 4.32178 10.4696L4.33752 10.4828L5.39421 11.3437C5.46113 11.3986 5.51453 11.4693 5.55004 11.5499C5.58554 11.6305 5.60213 11.7187 5.59845 11.8073V12.2094C5.6018 12.2974 5.58501 12.3849 5.54944 12.4649C5.51388 12.5448 5.46056 12.6149 5.39387 12.6692L4.33752 13.5304L4.32178 13.5437C4.15886 13.6846 4.04954 13.8812 4.01335 14.0983C3.97715 14.3153 4.01646 14.5386 4.12423 14.7283L5.55425 17.2988C5.5559 17.3012 5.55736 17.3038 5.55861 17.3064C5.66696 17.4935 5.83496 17.6353 6.03344 17.707C6.23191 17.7788 6.44833 17.7762 6.6451 17.6995L6.65682 17.695L7.898 17.1757C7.9764 17.1427 8.06121 17.1296 8.14545 17.1374C8.22968 17.1452 8.31092 17.1737 8.38248 17.2205C8.4923 17.2926 8.60391 17.3606 8.7173 17.4243C8.79082 17.4658 8.85394 17.5245 8.90158 17.596C8.94921 17.6674 8.98002 17.7494 8.99152 17.8355L9.17768 19.2125L9.1817 19.2376C9.22251 19.4512 9.33299 19.6437 9.49449 19.7826C9.65599 19.9215 9.85865 19.9982 10.0683 20H12.9317C13.1439 19.9993 13.3492 19.9208 13.5112 19.7783C13.6732 19.6359 13.7816 19.4386 13.8173 19.2212L13.8203 19.2017L14.0068 17.8219C14.0184 17.7359 14.0492 17.654 14.0968 17.5826C14.1444 17.5112 14.2073 17.4524 14.2807 17.4108C14.3952 17.3468 14.507 17.279 14.6155 17.2083C14.6869 17.1618 14.768 17.1335 14.852 17.1259C14.9359 17.1182 15.0205 17.1313 15.0986 17.1642L16.3418 17.6842L16.3536 17.689C16.5506 17.766 16.7674 17.7686 16.9661 17.6965C17.1648 17.6244 17.3329 17.4822 17.4411 17.2946C17.4424 17.292 17.4438 17.2894 17.4454 17.287L18.8754 14.7169C18.9836 14.527 19.0231 14.3033 18.987 14.086C18.9508 13.8686 18.8414 13.6716 18.6782 13.5304ZM14.1755 12.1308C14.1512 12.6694 13.9767 13.1891 13.6732 13.6266C13.3698 14.0641 12.9506 14.4006 12.4665 14.5952C11.9824 14.7898 11.4543 14.8341 10.9464 14.7226C10.4386 14.6112 9.97281 14.3489 9.6058 13.9676C9.23878 13.5862 8.98632 13.1024 8.87912 12.5748C8.77192 12.0471 8.8146 11.4986 9.00196 10.9957C9.18932 10.4928 9.51329 10.0573 9.93449 9.74216C10.3557 9.42701 10.8559 9.24579 11.3744 9.22052C11.7467 9.2035 12.1183 9.26712 12.4655 9.40736C12.8128 9.54759 13.1282 9.76137 13.3917 10.0351C13.6551 10.3088 13.8609 10.6365 13.9958 10.9973C14.1308 11.3581 14.192 11.7441 14.1755 12.1308Z" fill="#667389"/>
</svg>
