<svg width="44" height="48" viewBox="0 0 44 48" fill="none" xmlns="http://www.w3.org/2000/svg">
  <path d="M30.1059 3.49069C28.0477 1.23964 25.173 0 22 0C18.8101 0 15.9258 1.23214 13.8771 3.46927C11.8062 5.73104 10.7972 8.80495 11.0341 12.1242C11.5038 18.6727 16.4229 23.9999 22 23.9999C27.5771 23.9999 32.4878 18.6738 32.9648 12.1264C33.2049 8.83709 32.1895 5.76961 30.1059 3.49069ZM40.6149 47.9997H3.38513C2.89782 48.0061 2.41524 47.9024 1.97247 47.6962C1.52971 47.4899 1.13791 47.1862 0.825582 46.8072C0.138101 45.9747 -0.139007 44.838 0.06618 43.6883C0.958848 38.6719 3.74473 34.458 8.12346 31.4998C12.0135 28.8738 16.9412 27.4284 22 27.4284C27.0588 27.4284 31.9865 28.8748 35.8765 31.4998C40.2553 34.4569 43.0411 38.6708 43.9338 43.6872C44.139 44.8369 43.8619 45.9737 43.1744 46.8062C42.8622 47.1853 42.4704 47.4892 42.0277 47.6957C41.5849 47.9021 41.1023 48.006 40.6149 47.9997Z" fill="white"/>
</svg>
