<svg width="17" height="13" viewBox="0 0 17 13" fill="none" xmlns="http://www.w3.org/2000/svg">
<path d="M6.43273 3.61466C6.43273 4.70476 5.57156 5.56917 4.53277 5.56917C3.49399 5.56917 2.63281 4.70476 2.63281 3.61466C2.63281 2.52457 3.49399 1.66016 4.53277 1.66016C5.57156 1.66016 6.43273 2.52457 6.43273 3.61466Z" stroke="white"/>
<path d="M5.51538 7.39983C5.49017 7.37058 5.44652 7.33669 5.35457 7.32135C5.05445 7.27127 4.77511 7.24902 4.53326 7.24902C3.86867 7.24902 2.81066 7.46363 1.93001 7.89665C1.02055 8.34385 0.5 8.91634 0.5 9.54443C0.5 10.0591 0.917179 10.4762 1.4318 10.4762H4.45208C4.4785 10.4762 4.49992 10.4548 4.49992 10.4284C4.49992 9.64276 4.82229 8.88093 5.35439 8.26359L5.51538 7.39983ZM5.51538 7.39983C5.5447 7.43385 5.57478 7.49288 5.58569 7.58679M5.51538 7.39983L5.58569 7.58679M5.58569 7.58679C5.60866 7.7844 5.53447 8.05444 5.35452 8.26344L5.58569 7.58679Z" stroke="white"/>
<path d="M6.2832 10.4319C6.2832 9.64028 6.91811 8.94993 7.95742 8.42584C8.97214 7.91416 10.1952 7.65918 10.9831 7.65918C11.7711 7.65918 12.9941 7.91416 14.0088 8.42584C15.0481 8.94993 15.683 9.64028 15.683 10.4319C15.683 11.0594 15.1743 11.5682 14.5467 11.5682H7.41954C6.79196 11.5682 6.2832 11.0594 6.2832 10.4319Z" stroke="white"/>
<path d="M13.4173 3.06831C13.4173 4.45965 12.3174 5.56827 10.9841 5.56827C9.65073 5.56827 8.55078 4.45965 8.55078 3.06831C8.55078 1.67697 9.65073 0.568359 10.9841 0.568359C12.3174 0.568359 13.4173 1.67697 13.4173 3.06831Z" stroke="white"/>
</svg>
