<svg width="25" height="24" viewBox="0 0 25 24" fill="none" xmlns="http://www.w3.org/2000/svg">
<path d="M6.89101 12.0004C8.87923 12.0004 10.491 10.3519 10.491 8.31854C10.491 6.28512 8.87923 4.63672 6.89101 4.63672C4.90279 4.63672 3.29102 6.28512 3.29102 8.31854C3.29102 10.3519 4.90279 12.0004 6.89101 12.0004Z" fill="#436BB2"/>
<path d="M10.9918 14.0452C9.58378 13.3139 8.02979 13.0225 6.89179 13.0225C4.66279 13.0225 0.0917969 14.4205 0.0917969 17.2156V19.3634H7.59179V18.5416C7.59179 17.57 7.99179 16.5959 8.69178 15.7838C9.25028 15.1354 10.0323 14.5335 10.9918 14.0452Z" fill="#436BB2"/>
<path d="M16.2922 13.6367C13.6887 13.6367 8.49219 15.2813 8.49219 18.5458V21.0004H24.0922V18.5458C24.0922 15.2813 18.8957 13.6367 16.2922 13.6367Z" fill="#436BB2"/>
<path d="M16.2926 12C18.7226 12 20.6926 9.98528 20.6926 7.5C20.6926 5.01472 18.7226 3 16.2926 3C13.8625 3 11.8926 5.01472 11.8926 7.5C11.8926 9.98528 13.8625 12 16.2926 12Z" fill="#436BB2"/>
</svg>
