<svg width="24" height="16" viewBox="0 0 24 16" fill="none" xmlns="http://www.w3.org/2000/svg">
<path d="M4 3C4 2.44772 4.44772 2 5 2H21C21.5523 2 22 1.55228 22 1C22 0.447715 21.5523 0 21 0H4C2.9 0 2 0.9 2 2V13H1C0.447715 13 0 13.4477 0 14V15C0 15.5523 0.447715 16 1 16H13C13.5523 16 14 15.5523 14 15V14C14 13.4477 13.5523 13 13 13H4V3ZM23 4H17C16.45 4 16 4.45 16 5V15C16 15.55 16.45 16 17 16H23C23.55 16 24 15.55 24 15V5C24 4.45 23.55 4 23 4ZM22.6667 12.3333C22.6667 12.8856 22.219 13.3333 21.6667 13.3333H18.3333C17.781 13.3333 17.3333 12.8856 17.3333 12.3333V6.33333C17.3333 5.78105 17.781 5.33333 18.3333 5.33333H21.6667C22.219 5.33333 22.6667 5.78105 22.6667 6.33333V12.3333Z" fill="#436BB2"/>
</svg>
