<svg width="24" height="19" viewBox="0 0 24 19" fill="none" xmlns="http://www.w3.org/2000/svg">
<path d="M20.7979 0C20.6929 -0.000169754 20.5888 0.0202656 20.4918 0.0601234C20.3947 0.0999832 20.3066 0.158476 20.2325 0.232231L2.63406 17.662C2.49038 17.8118 2.41146 18.0113 2.41413 18.2179C2.4168 18.4245 2.50085 18.6219 2.64836 18.768C2.79586 18.914 2.99516 18.9973 3.20375 18.9999C3.41234 19.0026 3.61372 18.9244 3.76496 18.7821L21.3634 1.35229C21.4752 1.2415 21.5513 1.10036 21.5821 0.946726C21.613 0.793091 21.5971 0.63385 21.5366 0.489128C21.4761 0.344406 21.3736 0.220697 21.2421 0.133636C21.1107 0.0465775 20.9561 7.24792e-05 20.7979 0ZM11.5988 6.54361L9.00948 9.10807C8.99465 9.12264 8.97557 9.13224 8.95494 9.13553C8.93431 9.13881 8.91316 9.13561 8.89446 9.12638C8.87576 9.11715 8.86045 9.10234 8.85069 9.08405C8.84092 9.06576 8.83718 9.04489 8.84 9.02439C8.94453 8.35907 9.25995 7.7439 9.74067 7.26779C10.2214 6.79167 10.8425 6.47928 11.5143 6.37575C11.535 6.37295 11.556 6.37666 11.5745 6.38633C11.593 6.39601 11.6079 6.41117 11.6172 6.42969C11.6266 6.44821 11.6298 6.46916 11.6265 6.48959C11.6232 6.51002 11.6135 6.52891 11.5988 6.54361ZM12.3987 12.4707L14.9919 9.9033C15.0067 9.88853 15.0259 9.87874 15.0466 9.87534C15.0673 9.87194 15.0886 9.8751 15.1074 9.88437C15.1263 9.89363 15.1417 9.90853 15.1514 9.92695C15.1612 9.94537 15.1649 9.96638 15.1619 9.98699C15.0577 10.6532 14.742 11.2693 14.2607 11.746C13.7794 12.2227 13.1573 12.5353 12.4847 12.6386C12.4638 12.6418 12.4425 12.6384 12.4238 12.6288C12.405 12.6193 12.3898 12.6041 12.3803 12.5855C12.3707 12.5669 12.3674 12.5458 12.3707 12.5252C12.374 12.5046 12.3838 12.4855 12.3987 12.4707Z" fill="#667389"/>
<path d="M23.7479 8.64744C23.9134 8.90474 24.0009 9.20367 24 9.50876C23.9991 9.81385 23.9099 10.1123 23.7429 10.3686C22.42 12.3948 20.7036 14.116 18.7798 15.3465C16.6485 16.7092 14.2987 17.4297 11.9829 17.4297C10.7621 17.428 9.54954 17.2309 8.39224 16.8459C8.35985 16.8352 8.33075 16.8165 8.30773 16.7916C8.2847 16.7666 8.26851 16.7362 8.26069 16.7033C8.25287 16.6704 8.25369 16.6361 8.26306 16.6035C8.27244 16.571 8.29006 16.5414 8.31425 16.5176L10.676 14.1784C10.7006 14.1541 10.7311 14.1365 10.7646 14.1274C10.7981 14.1183 10.8334 14.1179 10.867 14.1264C11.6676 14.3197 12.5049 14.3055 13.2983 14.0853C14.0917 13.8651 14.8146 13.4464 15.3972 12.8693C15.9798 12.2922 16.4027 11.5763 16.625 10.7905C16.8473 10.0047 16.8616 9.17541 16.6665 8.38252C16.658 8.34927 16.6584 8.3144 16.6676 8.28133C16.6768 8.24825 16.6945 8.21812 16.719 8.19387L20.1162 4.82674C20.1515 4.79168 20.1989 4.771 20.2488 4.7688C20.2988 4.7666 20.3478 4.78303 20.3862 4.81486C21.6938 5.91879 22.827 7.21068 23.7479 8.64744ZM11.9989 4.75346C11.2724 4.75342 10.5553 4.91675 9.90171 5.23114C9.24816 5.54554 8.67521 6.00279 8.22606 6.56841C7.7769 7.13404 7.46327 7.79328 7.3088 8.49643C7.15433 9.19958 7.16306 9.92828 7.33433 10.6276C7.34283 10.6609 7.34246 10.6957 7.33325 10.7288C7.32405 10.7619 7.30633 10.792 7.28184 10.8163L3.94014 14.1274C3.90471 14.1626 3.85724 14.1832 3.80714 14.1853C3.75705 14.1875 3.70798 14.1708 3.66967 14.1388C2.45028 13.1084 1.31988 11.8546 0.286471 10.3894C0.10558 10.1323 0.00595613 9.82769 0.000258793 9.51434C-0.00543854 9.20099 0.083048 8.89304 0.254474 8.62961C1.57485 6.58309 3.2737 4.85942 5.16803 3.64577C7.30234 2.27763 9.59513 1.5844 11.9829 1.5844C13.2161 1.58768 14.4412 1.78062 15.6146 2.15632C15.6473 2.16666 15.6767 2.18515 15.7001 2.21002C15.7235 2.23489 15.74 2.2653 15.7481 2.29832C15.7562 2.33134 15.7555 2.36587 15.7463 2.39858C15.737 2.43129 15.7193 2.46109 15.6951 2.48511L13.3218 4.83516C13.2973 4.85942 13.2669 4.87697 13.2335 4.88608C13.2001 4.8952 13.1649 4.89557 13.1313 4.88715C12.7606 4.79817 12.3804 4.75329 11.9989 4.75346Z" fill="#667389"/>
</svg>
