<svg width="24" height="24" viewBox="0 0 24 24" fill="none" xmlns="http://www.w3.org/2000/svg">
<path d="M12.2004 18C12.0027 18 11.8094 17.9371 11.6449 17.8194C11.4805 17.7016 11.3523 17.5342 11.2767 17.3384C11.201 17.1426 11.1812 16.9271 11.2198 16.7192C11.2584 16.5113 11.3536 16.3203 11.4934 16.1704C11.6333 16.0206 11.8114 15.9185 12.0054 15.8771C12.1993 15.8358 12.4004 15.857 12.5831 15.9381C12.7658 16.0192 12.9219 16.1566 13.0318 16.3329C13.1417 16.5091 13.2003 16.7163 13.2003 16.9283C13.2003 17.2125 13.095 17.4851 12.9075 17.6861C12.72 17.8871 12.4656 18 12.2004 18ZM13.8722 12.5342C13.0618 13.1172 12.9504 13.6515 12.9504 14.1418C12.9504 14.3407 12.8766 14.5316 12.7454 14.6723C12.6141 14.8129 12.4361 14.892 12.2504 14.892C12.0648 14.892 11.8868 14.8129 11.7555 14.6723C11.6243 14.5316 11.5505 14.3407 11.5505 14.1418C11.5505 12.9677 12.0545 12.0342 13.0913 11.2878C14.0552 10.5944 14.6002 10.1549 14.6002 9.18879C14.6002 8.53182 14.2502 8.03293 13.5258 7.66372C13.3553 7.57691 12.9759 7.49224 12.5089 7.49813C11.923 7.50617 11.468 7.65621 11.1176 7.95844C10.4566 8.5286 10.4007 9.14913 10.4007 9.15824C10.3962 9.25676 10.3737 9.35338 10.3345 9.44258C10.2952 9.53178 10.2399 9.61182 10.1718 9.67813C10.1037 9.74443 10.024 9.7957 9.9374 9.82902C9.85079 9.86233 9.7589 9.87703 9.66699 9.87228C9.57507 9.86753 9.48493 9.84342 9.40171 9.80133C9.31849 9.75924 9.24381 9.69999 9.18195 9.62697C9.12009 9.55395 9.07226 9.46858 9.04118 9.37575C9.0101 9.28291 8.99638 9.18442 9.00081 9.0859C9.00631 8.95568 9.0908 7.78268 10.2392 6.7924C10.8346 6.27904 11.592 6.01218 12.4889 6.00039C13.1238 5.99236 13.7203 6.10757 14.1247 6.31227C15.3351 6.92583 16 7.9488 16 9.18879C16 11.0016 14.8696 11.8156 13.8722 12.5342Z" fill="#667389"/>
<circle cx="12" cy="12" r="11.5" stroke="#667389"/>
</svg>
