<svg width="79" height="30" viewBox="0 0 79 30" fill="none" xmlns="http://www.w3.org/2000/svg">
<path d="M10.3556 29.9762C7.80888 29.9762 5.26106 29.9242 2.71639 29.9974C1.43096 30.0356 0.835911 29.6634 0.927054 28.2625C1.01296 26.8117 1.01296 25.357 0.927054 23.9063C0.861054 22.6698 1.3461 22.2594 2.54144 22.2711C7.21802 22.3135 11.8957 22.2923 16.5722 22.2827C18.0902 22.2827 18.481 21.779 18.1856 20.3146C17.9593 19.1979 17.008 19.4037 16.2999 19.304C12.4959 18.7738 8.68469 18.2976 4.88078 17.7854C3.53773 17.6052 2.23239 17.3167 1.2822 16.1895C-0.565807 13.9955 -0.377235 6.46214 1.59648 4.38793C1.62791 4.354 1.66039 4.32006 1.69391 4.28719C6.37573 -0.372354 4.96878 0.02849 11.6757 0.0253087C15.6116 0.0253087 20.4421 0.0719666 24.377 0.000917593C25.7326 -0.0245328 26.1967 0.477052 26.1245 1.80365C26.0548 3.20855 26.0548 4.6161 26.1245 6.021C26.181 7.31261 25.6363 7.74102 24.3938 7.72829C19.8094 7.6827 14.3314 7.71345 9.74698 7.71027C8.84079 7.71027 7.9786 7.61907 7.9545 9.00399C7.9325 10.3221 8.53698 10.6201 9.70612 10.7569C13.9322 11.2518 18.15 11.8198 22.3593 12.461C24.4273 12.7717 25.9212 14.6476 26.0354 16.9869C26.1234 18.7632 26.0553 20.5479 26.049 22.3294C26.0419 22.5166 26.0191 22.7028 25.9809 22.8861C25.455 25.902 20.7407 29.9635 17.7194 29.9741C15.2648 29.9826 12.8102 29.9762 10.3556 29.9762ZM53.5491 14.7325C53.4883 6.27232 54.4228 8.33062 48.2324 2.00726C48.1486 1.92242 48.0658 1.84501 47.9841 1.76018C46.8736 0.62021 45.5337 0.0634835 43.9434 0.0709066C41.9048 0.0846922 32.715 0.082571 28.5528 0.0804501C28.7261 0.687105 28.7896 1.32047 28.7404 1.94999C28.6742 3.26585 28.6742 4.58426 28.7404 5.90011C28.7777 6.52788 28.6992 7.1572 28.5088 7.75587H42.2369C42.5425 7.75603 42.845 7.81771 43.1268 7.93732C43.4086 8.05693 43.6642 8.23208 43.8785 8.45257L45.2467 9.86083C45.6688 10.2976 45.9056 10.884 45.9067 11.495V18.4811C45.9065 18.7904 45.8456 19.0966 45.7274 19.3819C45.6093 19.6672 45.4362 19.9258 45.2184 20.1428L43.7234 21.6274C43.2935 22.0552 42.7151 22.2954 42.1122 22.2965H33.1456C32.8122 22.2965 32.4924 22.1625 32.2567 21.9238C32.0209 21.6852 31.8885 21.3615 31.8885 21.024V14.6317C31.8879 14.2223 31.7273 13.8297 31.4417 13.5398C31.156 13.2499 30.7687 13.0862 30.3642 13.0845H27.5209C28.2031 14.2252 28.5907 15.5212 28.6482 16.8533C28.7152 18.2011 28.6964 19.5341 28.6806 20.8225C28.6733 21.3273 28.667 21.831 28.667 22.3358C28.6603 22.6525 28.6277 22.9682 28.5696 23.2796L28.5581 23.3379C28.1956 25.4587 26.6284 27.7291 24.6138 29.4958C24.9281 29.8553 25.4582 30.0059 26.2481 29.991C30.5213 29.921 34.7946 29.9751 39.0699 29.9677C47.5787 29.9539 45.6584 30.5266 51.7817 24.4535C53.0064 23.2361 53.5816 21.8024 53.5627 20.0537C53.5313 15.7812 53.5816 19.0018 53.5491 14.7325ZM77.6884 0.0772689H72.8693C72.3546 0.0772016 71.8602 0.280799 71.4917 0.644601L71.3869 0.743221L65.3495 6.70498C65.2245 6.82771 65.0566 6.89537 64.8825 6.89319C64.7084 6.891 64.5422 6.81914 64.4203 6.69331L58.6311 0.677475C58.4476 0.487196 58.2282 0.336057 57.986 0.232972C57.7439 0.129886 57.4837 0.076944 57.221 0.0772689H51.0097C50.746 0.0780461 50.4886 0.158146 50.27 0.307384C50.9216 0.973336 51.4874 1.5343 51.9881 2.03483C55.9691 6.00085 56.2404 6.64559 56.187 11.9075C56.1776 12.7081 56.1681 13.6158 56.1776 14.7123C56.1943 16.8427 56.1891 17.1386 56.1849 17.4228C56.1849 17.6646 56.1755 17.8894 56.1964 20.0251C56.2153 22.5054 55.35 24.6316 53.6256 26.3474C52.7927 27.1735 52.1201 27.8638 51.5303 28.4683C51.0662 28.9454 50.6493 29.3675 50.2617 29.7408C50.4818 29.8949 50.743 29.9778 51.0107 29.9783H57.3027C57.6513 29.978 57.9856 29.8377 58.2321 29.5882C58.4786 29.3387 58.6172 29.0003 58.6175 28.6475V13.0845C58.6174 12.9523 58.6563 12.823 58.7292 12.7132C58.8021 12.6035 58.9057 12.5182 59.0267 12.4683C59.1477 12.4185 59.2807 12.4063 59.4086 12.4333C59.5365 12.4603 59.6535 12.5254 59.7447 12.6201L64.2914 17.5861C64.4135 17.712 64.5799 17.7839 64.7542 17.786C64.9285 17.7882 65.0965 17.7205 65.2217 17.5977L70.1968 12.6826L70.2754 12.6052C70.368 12.5138 70.4852 12.452 70.6123 12.4277C70.7394 12.4033 70.8708 12.4176 70.9899 12.4685C71.1091 12.5195 71.2107 12.6049 71.2821 12.7142C71.3535 12.8234 71.3914 12.9515 71.3911 13.0824V28.6549C71.3914 29.0078 71.53 29.3461 71.7765 29.5956C72.023 29.8451 72.3573 29.9855 72.7059 29.9857H77.6852C78.0339 29.9855 78.3681 29.8451 78.6146 29.5956C78.8611 29.3461 78.9997 29.0078 79 28.6549V1.40811C79 1.0557 78.8619 0.717678 78.616 0.468187C78.3701 0.218697 78.0365 0.0781113 77.6884 0.0772689Z" fill="#557EBE"/>
</svg>
