<svg width="25" height="27" viewBox="0 0 25 27" fill="none" xmlns="http://www.w3.org/2000/svg">
<path fill-rule="evenodd" clip-rule="evenodd" d="M22.3761 2.24184C21.8041 1.63508 21.1208 1.1436 20.3651 0.796214C19.6093 0.448809 18.795 0.251981 17.9689 0.218862C17.1427 0.185739 16.321 0.317057 15.552 0.607073C14.7849 0.896349 14.0865 1.3374 13.4978 1.90518L3.01602 11.7866C2.20791 12.5273 1.56043 13.4258 1.11072 14.4291C0.659991 15.4348 0.417362 16.5246 0.395102 17.6347C0.372842 18.7447 0.571316 19.8528 0.977219 20.8952C1.3831 21.9376 1.98869 22.8944 2.75839 23.7109C3.5281 24.5274 4.4476 25.1883 5.46422 25.6549C6.48088 26.1215 7.57542 26.3849 8.68478 26.4281C9.79425 26.4712 10.8965 26.2932 11.9269 25.9025C12.955 25.5127 13.89 24.9193 14.6771 24.1563L24.4757 14.9189C24.8776 14.5401 24.8963 13.9072 24.5174 13.5053C24.1386 13.1034 23.5057 13.0848 23.1038 13.4636L13.2999 22.7059L13.2945 22.7111L13.2891 22.7163C12.6979 23.2906 11.9941 23.7381 11.2179 24.0325C10.4415 24.3268 9.6071 24.4624 8.76257 24.4296C7.91793 24.3967 7.08014 24.1959 6.29847 23.8372C5.51676 23.4784 4.80783 22.9692 4.21367 22.339C3.61951 21.7087 3.15301 20.971 2.84091 20.1695C2.52883 19.3681 2.37775 18.5199 2.3947 17.6748C2.41164 16.8298 2.5962 16.0048 2.93578 15.2472C3.27533 14.4896 3.76356 13.8134 4.37171 13.257L4.37723 13.252L4.38267 13.2469L14.8741 3.35635L14.8742 3.35641L14.8832 3.34769C15.2757 2.96829 15.7426 2.67268 16.2577 2.47843C16.7729 2.28415 17.3271 2.19474 17.8888 2.21726C18.4506 2.23978 19.0086 2.37385 19.5298 2.61343C20.051 2.85303 20.5241 3.19293 20.9208 3.61376C21.3176 4.03459 21.629 4.52688 21.8375 5.06135C22.0459 5.59577 22.1469 6.16066 22.1363 6.7228C22.1257 7.28484 22.0037 7.83285 21.7794 8.3357C21.5552 8.83847 21.2326 9.28714 20.8307 9.65658L20.8307 9.65653L20.8221 9.66464L10.4001 19.4757C10.0121 19.827 9.49214 20.0127 8.94526 19.9831C8.39443 19.9533 7.86159 19.7068 7.46778 19.2891C7.07396 18.8713 6.8593 18.3249 6.86201 17.7733C6.86471 17.2257 7.08058 16.7176 7.45406 16.3511L15.3982 8.86202C15.8 8.48318 15.8187 7.85029 15.4399 7.44842C15.061 7.04656 14.4281 7.0279 14.0263 7.40674L6.07558 14.902L6.06964 14.9076L6.06379 14.9133C5.29562 15.6615 4.86734 16.6876 4.86204 17.7634C4.85674 18.8377 5.27286 19.8764 6.0125 20.661C6.75214 21.4456 7.76453 21.9222 8.83726 21.9802C9.9115 22.0383 10.961 21.6712 11.7532 20.9484L11.759 20.9432L11.7647 20.9378L22.1889 11.1247C22.7905 10.5705 23.272 9.89924 23.606 9.15044C23.9408 8.39981 24.1203 7.58728 24.1359 6.76057C24.1515 5.93396 24.003 5.10952 23.7007 4.33457C23.3985 3.55967 22.9481 2.84861 22.3761 2.24184Z" fill="#557EBE"/>
</svg>
