<svg width="13" height="22" viewBox="0 0 13 22" fill="none" xmlns="http://www.w3.org/2000/svg">
<path d="M5.94368 22C5.57641 22 5.21739 21.8848 4.91202 21.6689C4.60665 21.453 4.36865 21.1461 4.2281 20.7871C4.08755 20.428 4.05078 20.033 4.12243 19.6518C4.19408 19.2707 4.37093 18.9206 4.63063 18.6458C4.89033 18.371 5.2212 18.1839 5.58141 18.1081C5.94162 18.0323 6.31498 18.0712 6.65429 18.2199C6.9936 18.3686 7.28361 18.6204 7.48766 18.9436C7.6917 19.2667 7.8006 19.6466 7.8006 20.0352C7.8006 20.5563 7.60497 21.056 7.25672 21.4245C6.90848 21.793 6.43616 22 5.94368 22ZM9.04846 11.9793C7.54342 13.0482 7.33637 14.0277 7.33637 14.9266C7.33637 15.2914 7.19943 15.6412 6.95566 15.8991C6.71189 16.1571 6.38126 16.302 6.03652 16.302C5.69178 16.302 5.36116 16.1571 5.11739 15.8991C4.87362 15.6412 4.73667 15.2914 4.73667 14.9266C4.73667 12.7741 5.67257 11.0627 7.5982 9.69424C9.38828 8.42299 10.4003 7.61741 10.4003 5.84611C10.4003 4.64166 9.75038 3.72703 8.40504 3.05015C8.08843 2.89099 7.38373 2.73577 6.51654 2.74658C5.42838 2.76132 4.58348 3.03639 3.93262 3.59048C2.7052 4.63577 2.60121 5.77341 2.60121 5.79011C2.59298 5.97073 2.55121 6.14786 2.47828 6.3114C2.40535 6.47494 2.3027 6.62167 2.17618 6.74323C2.04965 6.86479 1.90174 6.95879 1.74089 7.01986C1.58003 7.08094 1.40939 7.10789 1.23869 7.09918C1.06799 7.09047 0.900583 7.04627 0.746028 6.96911C0.591472 6.89194 0.452795 6.78332 0.337912 6.64945C0.22303 6.51557 0.134192 6.35907 0.0764717 6.18887C0.0187518 6.01867 -0.0067201 5.8381 0.00151002 5.65748C0.0117231 5.41875 0.168634 3.26824 2.30131 1.45274C3.40711 0.51158 4.81374 0.0223361 6.4794 0.000722959C7.65855 -0.0140133 8.76621 0.197206 9.51733 0.572489C11.7651 1.69736 13 3.57279 13 5.84611C13 9.16963 10.9007 10.6619 9.04846 11.9793Z" fill="#436BB2"/>
</svg>
