<svg width="15" height="16" viewBox="0 0 15 16" fill="none" xmlns="http://www.w3.org/2000/svg">
<path d="M14.6782 9.53043L14.6625 9.51722L13.6058 8.65635C13.5389 8.60135 13.4855 8.53065 13.45 8.45005C13.4145 8.36945 13.3979 8.28125 13.4015 8.1927V7.79061C13.3982 7.70261 13.415 7.61505 13.4505 7.53511C13.4861 7.45518 13.5394 7.38515 13.6061 7.33078L14.6625 6.46956L14.6782 6.45635C14.8411 6.31536 14.9505 6.11877 14.9866 5.90173C15.0228 5.68469 14.9835 5.46135 14.8758 5.27165L13.4457 2.70122C13.4441 2.69879 13.4426 2.69623 13.4414 2.69357C13.333 2.50649 13.165 2.36475 12.9666 2.29295C12.7681 2.22115 12.5517 2.22383 12.3549 2.30052L12.3432 2.30504L11.101 2.82435C11.0226 2.85728 10.9378 2.87038 10.8535 2.86258C10.7693 2.85478 10.6881 2.8263 10.6165 2.77948C10.5067 2.70759 10.3951 2.63965 10.2817 2.57565C10.2082 2.53424 10.145 2.47545 10.0974 2.40404C10.0498 2.33262 10.019 2.25058 10.0075 2.16452L9.8203 0.787478L9.81628 0.762435C9.77554 0.549147 9.66536 0.356929 9.50427 0.218085C9.34318 0.07924 9.141 0.00223134 8.93169 0H6.0683C5.85605 0.000705574 5.65084 0.0792057 5.48884 0.221671C5.32683 0.364136 5.21842 0.561426 5.1827 0.778783L5.17969 0.798261L4.9932 2.17809C4.98175 2.2639 4.95119 2.34575 4.90393 2.41712C4.85667 2.4885 4.79403 2.54743 4.72099 2.58922C4.60726 2.65285 4.4956 2.72036 4.38617 2.79165C4.31473 2.83819 4.2337 2.86645 4.14971 2.87413C4.06572 2.88181 3.98118 2.86868 3.90302 2.83583L2.65983 2.31409L2.64811 2.30922C2.45106 2.23244 2.23433 2.22986 2.03563 2.30193C1.83694 2.374 1.66885 2.51615 1.56061 2.70365L1.55626 2.7113L0.124235 5.28348C0.0162985 5.47337 -0.0230963 5.69695 0.0130947 5.91425C0.0492858 6.13155 0.158703 6.32839 0.321779 6.46956L0.337515 6.48278L1.39421 7.34365C1.46113 7.39865 1.51453 7.46935 1.55004 7.54995C1.58554 7.63055 1.60213 7.71875 1.59845 7.8073V8.20939C1.6018 8.29738 1.58501 8.38495 1.54944 8.46489C1.51388 8.54482 1.46056 8.61485 1.39387 8.66922L0.337515 9.53043L0.321779 9.54365C0.158864 9.68464 0.0495361 9.88123 0.0133452 10.0983C-0.0228457 10.3153 0.0164603 10.5386 0.124235 10.7283L1.55425 13.2988C1.5559 13.3012 1.55736 13.3038 1.55861 13.3064C1.66696 13.4935 1.83496 13.6353 2.03344 13.707C2.23191 13.7788 2.44833 13.7762 2.6451 13.6995L2.65682 13.695L3.898 13.1757C3.9764 13.1427 4.06121 13.1296 4.14545 13.1374C4.22968 13.1452 4.31092 13.1737 4.38248 13.2205C4.4923 13.2926 4.60391 13.3606 4.7173 13.4243C4.79082 13.4658 4.85394 13.5245 4.90158 13.596C4.94921 13.6674 4.98002 13.7494 4.99152 13.8355L5.17768 15.2125L5.1817 15.2376C5.22251 15.4512 5.33299 15.6437 5.49449 15.7826C5.65599 15.9215 5.85865 15.9982 6.0683 16H8.93169C9.14394 15.9993 9.34915 15.9208 9.51116 15.7783C9.67316 15.6359 9.78157 15.4386 9.81729 15.2212L9.8203 15.2017L10.0068 13.8219C10.0184 13.7359 10.0492 13.654 10.0968 13.5826C10.1444 13.5112 10.2073 13.4524 10.2807 13.4108C10.3952 13.3468 10.507 13.279 10.6155 13.2083C10.6869 13.1618 10.768 13.1335 10.852 13.1259C10.9359 13.1182 11.0205 13.1313 11.0986 13.1642L12.3418 13.6842L12.3536 13.689C12.5506 13.766 12.7674 13.7686 12.9661 13.6965C13.1648 13.6244 13.3329 13.4822 13.4411 13.2946C13.4424 13.292 13.4438 13.2894 13.4454 13.287L14.8754 10.7169C14.9836 10.527 15.0231 10.3033 14.987 10.086C14.9508 9.86856 14.8414 9.67164 14.6782 9.53043ZM10.1755 8.13078C10.1512 8.66942 9.97666 9.18909 9.67324 9.62661C9.36983 10.0641 8.95058 10.4006 8.46649 10.5952C7.98239 10.7898 7.4543 10.8341 6.94643 10.7226C6.43857 10.6112 5.97281 10.3489 5.6058 9.96756C5.23878 9.58624 4.98632 9.10236 4.87912 8.57475C4.77192 8.04715 4.8146 7.49855 5.00196 6.99567C5.18932 6.4928 5.51329 6.0573 5.93449 5.74216C6.35568 5.42701 6.85594 5.24579 7.37444 5.22052C7.74668 5.2035 8.11826 5.26712 8.46554 5.40736C8.81283 5.54759 9.12823 5.76137 9.39168 6.03509C9.65513 6.3088 9.86088 6.63648 9.99583 6.99727C10.1308 7.35807 10.192 7.74409 10.1755 8.13078Z" fill="#667389"/>
</svg>
