<svg width="14" height="17" viewBox="0 0 14 17" fill="none" xmlns="http://www.w3.org/2000/svg">
<path d="M13.4167 2.42857H9.91667V1.51786C9.91667 1.1153 9.76302 0.729223 9.48953 0.44457C9.21604 0.159917 8.84511 0 8.45833 0H5.54167C5.15489 0 4.78396 0.159917 4.51047 0.44457C4.23698 0.729223 4.08333 1.1153 4.08333 1.51786V2.42857H0.583333C0.428624 2.42857 0.280251 2.49254 0.170854 2.6064C0.0614583 2.72026 0 2.87469 0 3.03571C0 3.19674 0.0614583 3.35117 0.170854 3.46503C0.280251 3.57889 0.428624 3.64286 0.583333 3.64286H1.20312L1.89583 15.2135C1.9476 16.2323 2.69792 17 3.64583 17H10.3542C11.3068 17 12.0422 16.2494 12.1042 15.2165L12.7969 3.64286H13.4167C13.5714 3.64286 13.7197 3.57889 13.8291 3.46503C13.9385 3.35117 14 3.19674 14 3.03571C14 2.87469 13.9385 2.72026 13.8291 2.6064C13.7197 2.49254 13.5714 2.42857 13.4167 2.42857ZM4.68745 14.5714H4.66667C4.51549 14.5715 4.37018 14.5105 4.26136 14.4013C4.15255 14.2921 4.08872 14.1432 4.08333 13.9859L3.79167 5.48592C3.78615 5.32489 3.84233 5.16818 3.94783 5.05027C4.05333 4.93235 4.19951 4.86288 4.35422 4.85714C4.50893 4.85141 4.65949 4.90987 4.77278 5.01968C4.88608 5.12948 4.95282 5.28163 4.95833 5.44266L5.25 13.9427C5.25278 14.0224 5.24043 14.1019 5.21365 14.1767C5.18687 14.2515 5.1462 14.32 5.09395 14.3784C5.04171 14.4368 4.97891 14.4839 4.90916 14.517C4.83941 14.5502 4.76407 14.5686 4.68745 14.5714ZM7.58333 13.9643C7.58333 14.1253 7.52188 14.2797 7.41248 14.3936C7.30308 14.5075 7.15471 14.5714 7 14.5714C6.84529 14.5714 6.69692 14.5075 6.58752 14.3936C6.47812 14.2797 6.41667 14.1253 6.41667 13.9643V5.46429C6.41667 5.30326 6.47812 5.14883 6.58752 5.03497C6.69692 4.92111 6.84529 4.85714 7 4.85714C7.15471 4.85714 7.30308 4.92111 7.41248 5.03497C7.52188 5.14883 7.58333 5.30326 7.58333 5.46429V13.9643ZM8.75 2.42857H5.25V1.51786C5.24956 1.47786 5.2568 1.43818 5.27131 1.40115C5.28581 1.36411 5.30728 1.33046 5.33445 1.30218C5.36162 1.2739 5.39395 1.25156 5.42953 1.23646C5.46512 1.22137 5.50324 1.21383 5.54167 1.21429H8.45833C8.49676 1.21383 8.53488 1.22137 8.57047 1.23646C8.60605 1.25156 8.63838 1.2739 8.66555 1.30218C8.69273 1.33046 8.71419 1.36411 8.72869 1.40115C8.7432 1.43818 8.75044 1.47786 8.75 1.51786V2.42857ZM9.91667 13.9859C9.91128 14.1432 9.84745 14.2921 9.73864 14.4013C9.62982 14.5105 9.48451 14.5715 9.33333 14.5714H9.31219C9.2356 14.5686 9.1603 14.5501 9.09059 14.5169C9.02088 14.4838 8.95813 14.4367 8.90592 14.3783C8.85371 14.3199 8.81307 14.2514 8.78631 14.1766C8.75956 14.1019 8.74722 14.0224 8.75 13.9427L9.04167 5.44266C9.0444 5.36293 9.06219 5.28453 9.09402 5.21196C9.12586 5.13938 9.17112 5.07405 9.22722 5.01968C9.28331 4.96531 9.34915 4.92297 9.42097 4.89508C9.49279 4.86719 9.56918 4.8543 9.64578 4.85714C9.72239 4.85998 9.7977 4.8785 9.86743 4.91164C9.93716 4.94477 9.99994 4.99188 10.0522 5.05027C10.1044 5.10865 10.1451 5.17718 10.1719 5.25192C10.1987 5.32667 10.2111 5.40618 10.2083 5.48592L9.91667 13.9859Z" fill="#557EBE"/>
</svg>
