<svg width="17" height="13" viewBox="0 0 17 13" fill="none" xmlns="http://www.w3.org/2000/svg">
<path d="M4.73199 6.06917C6.05745 6.06917 7.13195 4.97025 7.13195 3.61466C7.13195 2.25908 6.05745 1.16016 4.73199 1.16016C3.40653 1.16016 2.33203 2.25908 2.33203 3.61466C2.33203 4.97025 3.40653 6.06917 4.73199 6.06917Z" fill="#667389"/>
<path d="M7.46576 7.43083C6.52711 6.94334 5.49113 6.74902 4.73248 6.74902C3.2465 6.74902 0.199219 7.68105 0.199219 9.54443V10.9762H5.19913V10.4284C5.19913 9.78068 5.4658 9.13126 5.93246 8.5899C6.30478 8.15764 6.82611 7.75639 7.46576 7.43083Z" fill="#667389"/>
<path d="M11.1823 7.15918C9.4467 7.15918 5.98242 8.25553 5.98242 10.4319V12.0682H16.3822V10.4319C16.3822 8.25553 12.918 7.15918 11.1823 7.15918Z" fill="#667389"/>
<path d="M11.1833 6.06827C12.8033 6.06827 14.1166 4.72514 14.1166 3.06831C14.1166 1.41148 12.8033 0.0683594 11.1833 0.0683594C9.56328 0.0683594 8.25 1.41148 8.25 3.06831C8.25 4.72514 9.56328 6.06827 11.1833 6.06827Z" fill="#667389"/>
</svg>
