<svg width="23" height="40" viewBox="0 0 23 40" fill="none" xmlns="http://www.w3.org/2000/svg">
  <path d="M22.9987 11.647C23.0079 11.4054 22.9674 11.1645 22.8798 10.9394C22.7922 10.7143 22.6595 10.5099 22.4899 10.3391L12.7472 0.514537C12.504 0.268957 12.1939 0.101664 11.8563 0.0338291C11.5188 -0.0340063 11.1688 0.000664726 10.8508 0.133455C10.5328 0.266244 10.2609 0.491185 10.0697 0.77981C9.8785 1.06844 9.77649 1.40777 9.77659 1.75488V16.1864L2.90455 10.247C2.55241 9.95852 2.10246 9.8202 1.65064 9.86149C1.19882 9.90278 0.780862 10.1204 0.485877 10.468C0.190892 10.8156 0.0422137 11.2656 0.0715401 11.7221C0.100867 12.1786 0.305877 12.6056 0.642866 12.9119L8.84321 20.0004L0.642866 27.089C0.462609 27.2367 0.31349 27.4192 0.2043 27.6259C0.0951103 27.8326 0.0280595 28.0592 0.00710025 28.2924C-0.013859 28.5257 0.0116976 28.7607 0.0822636 28.9839C0.15283 29.207 0.266976 29.4136 0.417975 29.5915C0.568974 29.7694 0.753768 29.915 0.961463 30.0198C1.16916 30.1246 1.39555 30.1863 1.6273 30.2015C1.85904 30.2166 2.09144 30.1848 2.3108 30.1079C2.53017 30.0311 2.73205 29.9107 2.90455 29.7539L9.77659 23.8145V38.246C9.77666 38.5929 9.87874 38.932 10.0699 39.2205C10.2611 39.5089 10.5328 39.7337 10.8506 39.8665C11.1685 39.9992 11.5182 40.034 11.8557 39.9663C12.1931 39.8986 12.503 39.7316 12.7464 39.4863L22.489 29.6618C22.6585 29.4908 22.791 29.2863 22.8784 29.0612C22.9658 28.8361 23.0061 28.5951 22.9968 28.3536C22.9875 28.112 22.9288 27.875 22.8243 27.6573C22.7199 27.4397 22.5719 27.2462 22.3898 27.089L14.1895 20.0004L22.3898 12.9119C22.5723 12.7548 22.7207 12.5613 22.8254 12.3436C22.9302 12.1259 22.9892 11.8887 22.9987 11.647ZM18.6998 28.5206L13.2561 34.0109V23.8153L18.6998 28.5206ZM13.2561 16.1864V5.98996L18.7007 11.4803L13.2561 16.1864Z" fill="#667389"/>
</svg>
