<svg width="34" height="34" viewBox="0 0 34 34" fill="none" xmlns="http://www.w3.org/2000/svg">
  <path d="M17 1C8.16385 1 1 8.16385 1 17C1 25.8362 8.16385 33 17 33C25.8362 33 33 25.8362 33 17C33 8.16385 25.8362 1 17 1Z" stroke="#667389" stroke-width="2" stroke-miterlimit="10"/>
  <path d="M16.999 1C12.532 1 8.33203 8.16385 8.33203 17C8.33203 25.8362 12.532 33 16.999 33C21.4659 33 25.6659 25.8362 25.6659 17C25.6659 8.16385 21.4659 1 16.999 1Z" stroke="#667389" stroke-width="2" stroke-miterlimit="10"/>
  <path d="M6.33203 6.64062C9.27357 8.72909 12.9766 9.97447 16.999 9.97447C21.0213 9.97447 24.7243 8.72909 27.6659 6.64062M27.6659 27.3591C24.7243 25.2706 21.0213 24.0252 16.999 24.0252C12.9766 24.0252 9.27357 25.2706 6.33203 27.3591" stroke="#667389" stroke-width="2" stroke-linecap="round" stroke-linejoin="round"/>
  <path d="M17 1V33M33 17H1" stroke="#667389" stroke-width="2" stroke-miterlimit="10"/>
</svg>
