<svg width="72" height="40" viewBox="0 0 72 40" fill="none" xmlns="http://www.w3.org/2000/svg">
  <rect x="71" y="1" width="38" height="70" rx="3" transform="rotate(90 71 1)" fill="#F7F7F7" stroke="#557EBE" stroke-width="2"/>
  <path d="M30 32H42C43.65 32 45 30.65 45 29V20C45 18.35 43.65 17 42 17V14C42 10.67 39.3 8 36 8C32.67 8 30 10.7 30 14V17C28.35 17 27 18.35 27 20V29C27 30.65 28.35 32 30 32ZM32.4 14C32.4 12.02 34.02 10.4 36 10.4C37.98 10.4 39.6 12.02 39.6 14V17H32.4V14Z" fill="#557EBE"/>
</svg>
