<svg width="33" height="45" viewBox="0 0 33 45" fill="none" xmlns="http://www.w3.org/2000/svg">
  <path d="M16.5 2C8.49509 2 2 7.75982 2 14.8571C2 26.2857 16.5 42 16.5 42C16.5 42 31 26.2857 31 14.8571C31 7.75982 24.5049 2 16.5 2ZM16.5 22C15.3529 22 14.2315 21.6649 13.2777 21.037C12.3239 20.4091 11.5805 19.5166 11.1415 18.4725C10.7025 17.4283 10.5877 16.2794 10.8114 15.1709C11.0352 14.0624 11.5876 13.0443 12.3988 12.2451C13.2099 11.4459 14.2434 10.9017 15.3685 10.6812C16.4936 10.4607 17.6598 10.5739 18.7196 11.0064C19.7794 11.4389 20.6852 12.1713 21.3225 13.111C21.9598 14.0507 22.3 15.1555 22.3 16.2857C22.2983 17.8007 21.6867 19.2532 20.5994 20.3245C19.512 21.3958 18.0377 21.9983 16.5 22Z" stroke="#667389" stroke-width="3"/>
</svg>
