<svg width="40" height="40" viewBox="0 0 40 40" fill="none" xmlns="http://www.w3.org/2000/svg">
<path fill-rule="evenodd" clip-rule="evenodd" d="M8 3H32C34.7614 3 37 5.23858 37 8V32C37 34.7614 34.7614 37 32 37H8C5.23858 37 3 34.7614 3 32V8C3 5.23858 5.23858 3 8 3ZM0 8C0 3.58172 3.58172 0 8 0H32C36.4183 0 40 3.58172 40 8V32C40 36.4183 36.4183 40 32 40H8C3.58172 40 0 36.4183 0 32V8ZM12 29H16V13.7692L22 19.3077V14.2308L12 5V29ZM27 11H23.4L23.4 26.2308L18 20.6923L18 25.7692L27 35L27 11Z" fill="#667389"/>
</svg>
