<svg width="72" height="72" viewBox="0 0 72 72" fill="none" xmlns="http://www.w3.org/2000/svg">
  <rect x="33" y="1" width="38" height="70" rx="3" fill="#F7F7F7" stroke="#557EBE" stroke-width="2"/>
  <rect x="71" y="33" width="38" height="70" rx="3" transform="rotate(90 71 33)" fill="#F7F7F7" stroke="#557EBE" stroke-width="2"/>
  <path d="M23.4493 11.1924C23.6445 10.9972 23.6445 10.6806 23.4493 10.4853L20.2673 7.30333C20.072 7.10807 19.7554 7.10807 19.5602 7.30333C19.3649 7.4986 19.3649 7.81518 19.5602 8.01044L22.3886 10.8389L19.5602 13.6673C19.3649 13.8626 19.3649 14.1791 19.5602 14.3744C19.7554 14.5697 20.072 14.5697 20.2673 14.3744L23.4493 11.1924ZM20.5904 10.8389L20.5904 10.3389L20.5904 10.8389ZM10.5904 20.8389L10.0904 20.8389L10.5904 20.8389ZM10.2369 25.0872C10.4321 25.2824 10.7487 25.2824 10.944 25.0872L14.126 21.9052C14.3212 21.7099 14.3212 21.3934 14.126 21.1981C13.9307 21.0028 13.6141 21.0028 13.4188 21.1981L10.5904 24.0265L7.76199 21.1981C7.56673 21.0028 7.25015 21.0028 7.05488 21.1981C6.85962 21.3934 6.85962 21.7099 7.05488 21.9052L10.2369 25.0872ZM23.0957 10.3389L20.5904 10.3389L20.5904 11.3389L23.0957 11.3389L23.0957 10.3389ZM10.0904 20.8389L10.0904 24.7336L11.0904 24.7336L11.0904 20.8389L10.0904 20.8389ZM20.5904 10.3389C14.7914 10.3389 10.0904 15.0399 10.0904 20.8389L11.0904 20.8389C11.0904 15.5922 15.3437 11.3389 20.5904 11.3389L20.5904 10.3389Z" fill="#557EBE"/>
</svg>
