<svg width="40" height="31" viewBox="0 0 40 31" fill="none" xmlns="http://www.w3.org/2000/svg">
  <path d="M28.5079 19.4343C26.1692 17.3554 23.1488 16.207 20.0197 16.207C16.8906 16.207 13.8702 17.3554 11.5315 19.4343C11.3339 19.6053 11.1722 19.8139 11.0559 20.0479C10.9395 20.2819 10.8709 20.5367 10.8538 20.7974C10.8368 21.0582 10.8717 21.3198 10.9566 21.5669C11.0415 21.8141 11.1746 22.0419 11.3483 22.2372C11.522 22.4325 11.7327 22.5913 11.9683 22.7044C12.2039 22.8176 12.4596 22.8828 12.7206 22.8963C12.9815 22.9098 13.2426 22.8713 13.4886 22.783C13.7346 22.6948 13.9606 22.5585 14.1535 22.3822C15.7698 20.9456 17.8572 20.1521 20.0197 20.1521C22.1822 20.1521 24.2695 20.9456 25.8859 22.3822C26.2771 22.7299 26.7904 22.908 27.3128 22.8772C27.8353 22.8465 28.3241 22.6095 28.6718 22.2183C29.0195 21.8271 29.1975 21.3139 29.1668 20.7914C29.1361 20.269 28.899 19.7801 28.5079 19.4324V19.4343Z" fill="#667389"/>
  <path d="M20.0185 8.10549C14.7218 8.09819 9.62173 10.1113 5.75807 13.7345C5.56245 13.9098 5.40379 14.1223 5.29139 14.3596C5.17898 14.597 5.1151 14.8544 5.10349 15.1168C5.09188 15.3791 5.13277 15.6412 5.22377 15.8875C5.31477 16.1339 5.45404 16.3596 5.63342 16.5514C5.81279 16.7433 6.02867 16.8973 6.26837 17.0046C6.50808 17.1119 6.7668 17.1703 7.02936 17.1763C7.29191 17.1823 7.55303 17.1358 7.79738 17.0395C8.04173 16.9433 8.2644 16.7992 8.45234 16.6157C11.5895 13.6827 15.7238 12.0511 20.0185 12.0511C24.3132 12.0511 28.4476 13.6827 31.5847 16.6157C31.7727 16.7992 31.9954 16.9433 32.2397 17.0395C32.4841 17.1358 32.7452 17.1823 33.0077 17.1763C33.2703 17.1703 33.529 17.1119 33.7687 17.0046C34.0084 16.8973 34.2243 16.7433 34.4037 16.5514C34.583 16.3596 34.7223 16.1339 34.8133 15.8875C34.9043 15.6412 34.9452 15.3791 34.9336 15.1168C34.922 14.8544 34.8581 14.597 34.7457 14.3596C34.6333 14.1223 34.4746 13.9098 34.279 13.7345C30.4154 10.1113 25.3153 8.09819 20.0185 8.10549Z" fill="#667389"/>
  <path d="M39.3432 7.36837C34.0244 2.62274 27.1454 0 20.0173 0C12.8892 0 6.01023 2.62274 0.69146 7.36837C0.491565 7.53912 0.327814 7.7481 0.20983 7.98303C0.0918456 8.21797 0.0220079 8.47411 0.00441994 8.73642C-0.013168 8.99872 0.0218488 9.2619 0.107413 9.51048C0.192977 9.75906 0.327362 9.98803 0.502672 10.1839C0.677982 10.3799 0.89068 10.5387 1.12827 10.6513C1.36586 10.7638 1.62354 10.8277 1.88618 10.8393C2.14883 10.8508 2.41113 10.8098 2.65767 10.7185C2.90421 10.6272 3.13003 10.4876 3.32185 10.3078C7.91717 6.20947 13.8594 3.94459 20.0168 3.94459C26.1742 3.94459 32.1165 6.20947 36.7118 10.3078C37.1019 10.6566 37.6145 10.8362 38.137 10.8071C38.6594 10.7779 39.1489 10.5424 39.4977 10.1524C39.8465 9.76231 40.0261 9.24967 39.9969 8.72722C39.9678 8.20477 39.7323 7.7153 39.3422 7.36649L39.3432 7.36837Z" fill="#667389"/>
  <path d="M20.0159 30.8121C21.6762 30.8121 23.0221 29.4662 23.0221 27.806C23.0221 26.1457 21.6762 24.7998 20.0159 24.7998C18.3557 24.7998 17.0098 26.1457 17.0098 27.806C17.0098 29.4662 18.3557 30.8121 20.0159 30.8121Z" fill="#667389"/>
</svg>
